<mxfile host="Electron" agent="Mozilla/5.0 (Windows NT 10.0; Win64; x64) AppleWebKit/537.36 (KHTML, like Gecko) draw.io/24.7.17 Chrome/128.0.6613.36 Electron/32.0.1 Safari/537.36" version="24.7.17">
  <diagram name="Página-1" id="A1FeUwfloEo0HzNMNWAI">
    <mxGraphModel dx="307" dy="796" grid="1" gridSize="10" guides="1" tooltips="1" connect="1" arrows="1" fold="1" page="1" pageScale="1" pageWidth="827" pageHeight="1169" math="0" shadow="0">
      <root>
        <mxCell id="0" />
        <mxCell id="1" parent="0" />
        <mxCell id="7zxnzZjWzZ1aERw0rwSX-6" value="&lt;h1 style=&quot;margin-top: 0px;&quot;&gt;Los mejores improvements&lt;/h1&gt;" style="text;html=1;whiteSpace=wrap;overflow=hidden;rounded=0;" parent="1" vertex="1">
          <mxGeometry x="1070" y="360" width="180" height="120" as="geometry" />
        </mxCell>
        <mxCell id="7zxnzZjWzZ1aERw0rwSX-8" value="&lt;h1 style=&quot;margin-top: 0px;&quot;&gt;TODAS LAS ÉPOCAS TIENEN LA MISMA FRECUENCIA&lt;/h1&gt;&lt;div&gt;=&amp;gt; Escojo de épocas 20 para que pare cuando tenga que parar. No pruebo con más que tenemos errores de memoria&lt;/div&gt;&lt;div&gt;&lt;br&gt;&lt;/div&gt;&lt;div&gt;&lt;br&gt;&lt;/div&gt;" style="text;html=1;whiteSpace=wrap;overflow=hidden;rounded=0;" parent="1" vertex="1">
          <mxGeometry x="1520" y="212" width="630" height="120" as="geometry" />
        </mxCell>
        <mxCell id="7zxnzZjWzZ1aERw0rwSX-11" value="Valores finales para fine-tune&amp;nbsp;&lt;div&gt;moment-base&lt;/div&gt;" style="swimlane;whiteSpace=wrap;html=1;startSize=70;" parent="1" vertex="1">
          <mxGeometry x="1461" y="462" width="250" height="270" as="geometry" />
        </mxCell>
        <mxCell id="7zxnzZjWzZ1aERw0rwSX-13" value="epocas 20&lt;div&gt;Masked 0.75&lt;/div&gt;&lt;div&gt;dataset 0.2&lt;/div&gt;&lt;div&gt;n_windows 1&lt;/div&gt;" style="text;html=1;align=center;verticalAlign=middle;whiteSpace=wrap;rounded=0;" parent="7zxnzZjWzZ1aERw0rwSX-11" vertex="1">
          <mxGeometry y="70" width="250" height="200" as="geometry" />
        </mxCell>
        <mxCell id="hQbRVMWu5Df9wvZDzti9-1" value="" style="shape=image;verticalLabelPosition=bottom;labelBackgroundColor=default;verticalAlign=top;aspect=fixed;imageAspect=0;image=data:image/png,iVBORw0KGgoAAAANSUhEUgAAAecAAAEgCAYAAACO4LtYAAAAAXNSR0IArs4c6QAAAARnQU1BAACxjwv8YQUAAAAJcEhZcwAAFiUAABYlAUlSJPAAAD3SSURBVHhe7d1dbxPZmi/w/5xL7udmKy/jigHF5gvsLUWkp0nMi5wEMoo0+yoKaRqE6AQyWE2u9lXYMicDAqG8R7makaIJJLGANnImRpZ2f4GUI8ApiG31R+Dy1LlY9bKqXOU4jgNF/P9JkZJV5XLVWqueZ61V1c0/6bqu4wD7+/v453/+Z3cxERERHYP/4y4gIiIify9evHAXNdw/1TpzJiIioq+jpuRMREREXw+XtYmIiAKGyZmIiChgmJyJiIgChsmZiIgoYJiciYiIAobJmYiIKGCYnImIiAKGyZmIiChgmJyJiIgChsmZiIgoYJiciYiIAobJmYiIKGCYnImIiAKGydkhi3FFwfiW8deEAkXpxeJX+xczxfcrE1n3hkNwXsPXVprvbWidZScUKBcXUXJvkJTmew/c5zAafbxjsTUORRnHUXpKI9Tf3qKf9s4HuZZLWLz4jc9xfxG9h4wJok2+Zd8w4ljQ76Hj0MD7kslZtl9AXvqze1qDpr3FaLtUGHSua2gGe+8L7qIjafTxjkNpr9la+VvYw84Hd9lX1j6Kt5oGbbrbvSXAuvFE06D9NopW96YTrpH3JZOzJYvxH6ZQALD5kxgty7MC8/feiwoURYGijGN8wv7dGiltjRtlRxg5qlNitOyYWYhRvHlsMTN2l1VegyePc/S6Ps9rcsyS3N9vfQNWf66/DsS5iM+PvJQ2eJxHab5X7PNhCueVcWRd52TNOMwZiHxtHmWVx3Mzjn+x1/6sNKsRqy3iR9S/83y8yrzbEtIMxP6u3vkSsDWO838vANjEyGFnrUYd9l4067gX4xP27+ax5Ouw29DrHG2OlSaPunV+fgSbzo871NwfHf3XWVbZFl5lfu1ZwuJFcY6Fv58/1MzVt90qGN9tHFucm7hOe8VIXk2rclypTkTfsHm1pWN2bXx2fMv8XbRhZV3VyqzTRZQ863dcXId1Xd79UvRFj/vH0bdc94/ZV+Vr8uqLHt/ndR94ftavHY5yX3rRyfZ5Qe8JhfSxjPizONejh0I9+sJn83exTf5dz4zZvxuf75kr6rq+rY9Zv9dKfCYUW9CLuq5v3wvpodCYvu36XXz/mL6dGbPOz+K6hgo+5+i4JvncHfv7n5PJt25q5fi+or4Qs+vDZpTfE9+8fc9rH/P7Rf1U7mPU9b3t2o+n6/a+5nVL3yH3F7vctb9PvXm2r6M/OOvC3ueQjDbpmSs6f3e1s0XuTx79zbrmObmtvevWUT9+32eorT/69V9XWziOWb19nG1Tzz2s29fv0W5uFW0tnZN8jaIu/Y4r7+PVl8x6kPaT2lXsL9VjbEEvHhRHqpLPTa7fKnUt90XH/ei+f5zXKl+f/Lt9D3v3xdruA5/P+rbDEe5LD5w5H0oY58JAa0fE+h3hcwibmws7KJgjbWNmUHi/5zxEDcLXYmgF0HE2DCCPwn4JBRXGiMwcGedRCA+gDwVM/eAa7VVT9Rz7MPCjtOv7PWv/SIdYoBLnBADGOZ05hw77IwaPuqmV4/taEY7am+zZ0XlMfQCgFjxm5caoVlGg/LQJoICdAtB9uc+YDRuja3P5/+XIAcfzcXUA9kKj+A6xHG60h/TdgFxPXvXm075me0bDaHXVxVFFOlqt9ol0tALtYUSsrdJsxViJye+VgB/9+lsBU3/fBK4u48mP0qMVV93+/r4AIIJwO1zf58e/P3r3X6PfWY8mjO8y1NI+dv9ugBrarTU2hDDyKMyvY/NMH/rOFLCaTmPnQxhDMZ9FYfdxjfoOnxU9Sr4GZz104NwZY0N7DENngPzeItZfhtF3NYzCizTS7wsi/hjbN3+SZ6dHcOYcOsxz9q1r1zXL96N5v7iuVcRiQdRlATsFcT+Fr8XQ6tMXzeNWvQ8O+GxFOzQYk7OH/F7NIdrJaOTwr++gaZr4qeNZkRls7BvL7AB9WDaPq73FaLvxbEdbRh8KWE3b5+17DVXP0UgI8g1g7G8eb+99wXmjfdjB4YcfVTi+z0xaAFBC+kUBuLoMTXuHSTPImMzz2FrHJsKY3NagLfTZ2398Iq51oQ/4sIo0jJvw6rJdD/IzsoOuy7hJxTMmkRREsDG+2zjmEym5CF715te+8ue8SAm8kfbTWP0A9C1o0LYnpQGWX38LY/LXPuDliFjeMwOcq27/bA02a303wr8/evdfmz2wdZcd1D6V6hlg16w9jAgKWH2RR/jaBCauhVF4sYq8a2BRlVHfzrghOOtBPEMXiU30ucKLVeTPDGHilyGEP6xiVbUHxqO/ada9tvn6MMv69TIHS8az/mi48pm161rF/WcO+IwBxaPrWDUHNz59seK4Xur+bGPuSyZnmdG4hb+fP+QzFkP7KJZ+DRujevfs4hBejkAxnrf2LTxBN4Du6WX0GTMrRTGe1VjPmUawiT5M3mg9+BqqnqMxq/hhCoUzk1i60SpeSFnos/YfeRnG5JzooN3T7zB5xj6nI4+uIc5v8qo5M7qOVWtDK2LXws5RrKH7cp8x6xxHVp7d/WQ/1bSen/20CVydFAObBZFQRD3Y5+84nv01TsYs/PzfCwj/uoTRdqD1xhImz5gzS//n7V715tm+VZizhKkf6uxj1cizJmPmDMjPNaX+Zoo9wbLRbuNb3nXbemPSbpuf7Zb1590f/fuvrfXGWyxftduid75Uc/vYujFw1bgfD2iP+onvKHwAhmKtYib4oYCCY2XmIN2Y+NW8NxRMqfZwylkPI9g069Hs5x8KwLUYWo1BQuGDsVphPWs9j6kPYUz+UvvZHIWYqYv+tewx6AK68WR7EmHjWs//vWDFSKAVo/fFNRXODCHWbuzv0Rdrc/jPNvK+/Cdd13V3ITWf0nwvzv8dmNyuZcbWzEpYvHgeU5jEu5pG0VQP9scmszUO5adN9C3UtprRDDhzPtGk569VZhnkz/Gmq6Kgd/4P9y50RI43rWtYNfheNct1UmNw5kxERBQwnDkTEREFDJMzERFRwDA5ExERBQyTMxERUcAwORMREQVMTW9r/+///q+7iIiIiA7pX//1X91FnmpKzuUv/89dRERERIfUcqq2Beva9iIiIqKvhsmZiIgoYJiciYiIAobJmYiIKGCYnImIiAKGyZmIiChgmJyJiIgChsmZiIgoYI6YnEv47/4w/hK9i9/NouIS/hoN4y/mz4N3zo/UKnsXf10uuUvxx3IMf/P4N8p/fxD23N8+xzD+0r+EP3zLnOcuH+v3B+b1SNcJGMdxlv2xHLOu3es8TyJHm7jbv4nq4dDkuvK6T7J3rTr07o8x/HfR8QmqIN3rFfevXJfOeCDfx44Y0VQq41tgyPeOT/t4xm3pnnL2B4+cIO8r3Z/eMb56P6tH/cm5uIS/Rn/As4J7AwB04M6bAv6hFvCPh+fdGw9gXOTtlKv8Hf4WDePfpvdc5eJc0vkOdykA4PcHP+D9XeNcNq7jTwD+WB61yv6nfxX/sVwS33tnB3fUAv6hbiO+MSoCX3EJz7AkPv8cmDAbKXsXf6m4/hLeYVLsqy4Bj707zcnh0SZt1/FfqlHf6hJ6ww9wo1v+DJl+n1lF/I3ob3fyUxWJ9nftHP7H6o//KW54R3+M4NmMR1InW/Y/kerfFvf6RB7PXAP4Pz80+2oB/zPRgd67IkYAETuGGXGjqXjGtwCR4sz/9K9i3j0B8IvbAHqfm23+GH82yrzyBLofW31jGub96RPji28B8/PPUdHP6lF/cjYqZ7rPVa7t4DMi+Jc2V3nNWvHvGwX843ncVX4efzNuICeRVGN3I65yAHiHNOLAbefoZ/8jcFYRe/zpwhDwUQOg4T3OoR0A0Irz/cB7TT6W8C+njQ92PxZBNSxvbcW/jxx2MPI982sT4Y/ldZx91oSBrSbvkM4P4XwbRL+5G0Eq40ocI5V190dmFWdiRh/rvoc7+fWGjNJPqt/TecQvtAIA/jQyiTMbb30GzO8w/3ESfzMGkvsf8+4dmotnfAsmOZ77MeP2H5pXu3rnCVsJn/NmTvOJ8W3X8e8NnoTUn5yrSmGiYtp/PMQs2B4BORQL+LAJxIzZhz072bMS7x+ZVXw29y/sYB8Qo6MNYzbYdh3/FVsXjfb4HP7viLjRD/L7g6kmT0zvML9xzkg+dBRV+zg1xB/LU4A56AEA7OHZJRHDvB+X0bdmLlunY2n8uzvOVInbb91J2DdPmEvVo8CzyvvPO8a/w98OkSeqaXxylpcC+oC3txuz/u6puIT/kEa7FdrCOBOunA3/+eGSNUr6tw2g97QiZoHPYQwqfkAKcZxVjOcL6QFxTc+A//B5vmETS72eHaaZZNcBa4mQ6iOCw39g0b+PUwOU8O7jkOPxi73cLT1SoEAx2yiWrhxA+cXtP42kK5eqffKEtYqrLgJ35ImmT4zP3sVfouuINegxSOOTs5t10Y33+8xDfN68LkZBt1P4PP2Dq5EUnMUq3pnPCjbM5Q+xHPsPtYDpCHDWWPayBxZLOAN71tdrjqjbwjhjHtpTCf/dv46YWmj6YPp7Gog1eR1UJ/dN5/Kr6fcHo8CzAv5LGoX/SYngbdoc8b9FKjJQMaInW/tp2I8Lsuv40N9bGTiLb/H+tEc5IB53BfW5KwEA/hxzPwIVqsftEj5bK9x+ecLUivP95qM7nxhfXMJf0wOO59hH1fDkLL/JNrEZx3SDRhFe5Jc5/vE8jn+Z2MZ/jbSKc3jwTox8ng0hdcmYDfcvipGO9Bbes9NGmePtPnu54k8jizj72Cy/Xn02WHyLVMFe0m/et2nfIZ0/vkHZySD3TakfFpfw1+hd/I53SG/aS6t/MR8RdT/GNIwB6aUd3Dn0C5fN5U8ji4hv/OBa3nyHv0n35h+ZVUCRB0bym7fXgeeNC7jUIPKb1NIysvlf7fjFbTvGS/nAJ0/IuezfzBVanxj/R2bVnihG/d8gPwz+e85ERERfCf89ZyIiou8UkzMREVHAMDkTEREFDJMzERFRwDA5ExERBQyTMxERUcAwORMREQVMTf+d85cvX9xFREREdEinTp1yF3nizJmIiChgmJyJiIgChsmZiIgoYJiciYiIAobJmYiIKGCYnImIiAKGyZmIiChgmJyJiIgC5ojJuYyV/iii0QRyRknuQRTRqPwTx0rR9bFaZBOIL5fdpSgvx5HIuktzSPSvoHJvcRzzXMzPVZyj+VlpX/m77f3t65T3dZRbdSId94RztElxBXFH+9v1Ti5yXT2we5DlwP5Y573VVKT70XGfCn6xoLwcryg70dzx9qC++a3J5+fTPkeO2/K+Uh3IfcOObdX7WT3qT87FFcSjMTwqOIu7HqpQVfEz2wcgPIgLbc59qjMu8vYrV3kOiWgUsWnNUSoq6ibcewtlrDwGZlUVqjoL3BaVJp9jekLBlbvDaAGQ0yJIqypUNY3BjaeigosrSGJW7P8cuCk10pXn5nGS6DLKcg9iyN81yjfEcU8ujzZpG0bKqFtVncWV8H380i1/hky5mTUMvhH97X4+WZFoD+6PnXg004gwcIJln2KtP23c67tIugb8frEA6MT9N81wH3vH24P65jcnxZl0/xqeuicAjYjb3Umrb8zCrIMyMkhY8Q2PjURezADm55+jop/Vo/7kbFTObJ97g6G4guQmpM5eqxYMb6hQn19xlXchadxAspaRlEgCjlIf4QhCjoIcnn5MIGkkj66Rg89VOS2OUNZ23ZsA5JDCFeB25WjrZPJuE1N5OYXIs4PrtDnlkMqbA9cWDN/txFrGlTg8+mM5s4bOmBFSun/B/XyqIaP0kyqX3sXgBVGLLSMJdG5kPGdZ7ljw6aPX/X0SecXbg/tmkHz6CES8Q5DlaHG7jL18JzrM+hgxU7qkbRjDDZ6E1J+cD5CbeQTtm8+aWjC8EUcqGkU0mqxIFOXlJGAGOkf5LeTvGqOqtmGkYinRaI8jmBmxj/DK3ZjFPexuAnFjthPIEedXk8PTjcghV03Ii6M/0rGojAUaHl0S97fX4zX69sxl61QshWF3nGlI3DaXqm8Bzyrvv9yDypwC5JBwfV+9jic5G7Nmpf9Cxcj/qyquIB5NGZU+A9yRn9GVkfk46Bo8iMa4hRlrBF1ejiOajovlimfALeN5hJixu5Y82jrQac3OW3ChH8g7V+GbRzYFHHrVhJwq+yMdh8pYYC93S48UKFDMNoqnKwdQjYnbxqqCOgPckZ8vi8d5FYOCbALRaArxBj0GOZ7krOWhQbGWk76pvrgx4mlBR0QqL2aQP+0cPOQe3AKeqUi5Rj1XzBF1Wwc6HVtgLHmYv4cQwRoy5rOJjYOXW06qXBqIM6FUIfcV5/Kryas/tiideJU2R/wZrEXM/k1eQqdhL8lmU9j1mjB4xALbJ+Rd79WcfAf3zSDpink/1Gxc3G7BhX6zoIyVfjHhcwyYiyuIp+OO59hHdSzJOZd+VceLYI1TXo6LJYu2YcycTlpv1t1EwhrplDNrgOJIzUht2ktZ5pt4LSMziDw2y25as0H7TcAY1vpnjOO2YPjZINYuucubTQ6pvPv5PjnJfSWK5GmjrxRXEI8mkPPpj+hOYhY3RdmlPBIPGxUKTqaWkRkMbsRcy5s5JKQ33Stjgfzm7U3geeMC7vfBp28GifwmtbSMnHsgZtGNiNvyW9kx832EYgZrhVe4aX630Y/KmTVom8Z9GfV/g/ww+O85ExERfSX895yJiIi+U0zOREREAcPkTEREFDBMzkRERAHD5ExERBQwTM5EREQBw+RMREQUMEzOREREAVPT/4SEiIiIvh7OnImIiAKGyZmIiChgmJyJiIgChsmZiIgoYJiciYiIAobJmYiIKGCYnImIiAKGyZmIiChgjpicS1i8qEBRxpGVi/cX0asoUBQFysVFlORttdoaR+985SdL870Y33KXZjHu9T3yeRg/41tAdsJZZp2jtL/83fb+vVjcrzy2vG9pvtfxXc3A0SY+dU4e5LqacNxBwta4VYcH9kfyYcYopTJOOerS+DFigXwf1x3DvmdS3/Oqt2+uhhxjt610/r7XJfUT83jyvtL96R3jq/ezuuj1+ryg94RCeigU0kOhMX3bVd4zV3TuX7OivhATx3UeY1sfM75vLCPtPdcjziG2oFf/xm19zGOf4lyPcbyivhAzr6OoL8R69IXPxvXcM64uM6aH7m3776sX9YU5sya8v+9k8W4TWzPUQf2270n9xupD0vY5s+6k/ubZH8lXZsyKI8W5nqpxyY4Ful6cG6toj6aSGfO5p4NHbjeL333ic13b9/ximOC4V71i/OcFfcH8vNTnjqL+mXP7KN5qGpavOotL6VUU0IfJG63ODTVrxehvGrSFPld5N55oGt79GnaUtt54C01bhntvt9L8Os7NjcJ5VllMv5/Ekx8BYA87OIcOAEArYteAnYK4nsjlbrH7jxOYVNeR9dkXaMXoDWPfpuDdJibvOichi3V1CLF2iH5zP4LVtHP8332jsu68+yP5yb7OYygmarH1xiQiL9KesyxnLAD23ufdOzSV0t73c/1774Fz3iHIEj4rorX3dWWxjj7gp8pZslBCQY0gbN6rXjG+fRSjRt9plPqTs4+99wXgTB5TByw5fF1ZTL84ZwRCW2l+CjADHQB82MGe2IL0i4Jd7uWAfbMTU02emLzrnA6vNH8dO/efwCMkUINUxAIUMPWDiGFej9eawaZvsgoGc9l6/fJbjLrjTPso3l5eF+f/6ByWpMlixXXtF5B/CQxoGjTtHSbVKeNxkblUfR2Yq7z/vGN8FuOu76tXw5MzAOBDBJOaMfv9MIXpb/3McWsduO+uxBLS74cwYY12uvFkARhRFCjKeayir8porNq+WYz7dZhm4lnndDgiOFzHkjWjo+PgjgVA97QGzQjWQy+mm251QqxIijpYhpmsgsVso4HXlQOo0nwvlNcD4hrmgOvGJNHzutrDiJzxWQn9TYOmLQE/y8+XfWL81jgUZR0DvzUm7jU8OXdfdi8wh6skua8j+xoYcAe3/TR2zsaclfjjE6PhlhGBmPW1dkSw+docYaWxGh0QIyiPfUUwXceApjV9MPWsc5J04BxWkTaCnrz8aspOXAfmNLyVRuG+/ZE8dZyF/bhgax35a657Hj6xwLKHnQ/usmZSQkF1lwVLZc4R+syVkPYwIu6NjuuS78US0i/cy+StiF0zC3xi/P4iel8PQNMqZ9h1cz+EPqzte64Xwqwyr5e6DsHnobrnw3/Xi0fFuR7pRRnvl5K8jmOft/PlHLvcvk7PfR0vyVUe56SqrEvvOicXqb9Yff3zgt4TGtO3pZftzB+zjr36I/mxXzC1Xxrd1seke7Oy/0qf8X3Z8WRrSAw/Tpkx+96QYs32PfN8vdvQ97o87kXrZeNQyM4nPjHesa/rnOrFf8+ZiIgoYBq+rE1ERERHw+RMREQUMEzOREREAcPkTEREFDBMzkRERAHD5ExERBQwTM5EREQBU9N/5/zlyxd3ERERER3SqVOn3EWeOHMmIiIKGCZnIiKigGFyJiIiChgmZyIiooBhciYiIgoYJmciIqKAYXImIiIKGCZnIiKigDmG5FzGSn8U0aj4iS+X3TvUJffAPmY0GkW0fwVlAMgmrLJE1v0pUw4Jc384PxN9kHPuijJW+hOQS+3vlsqLK4h7XWNN53OylJfjzmttwjqoi9SHKvuhyd0fj+f+Ornk+nLe16gSV8rL8YqyEy2bcPalmvrmNySfn1/7eMVorzL4xawcElLfcMYyV06Ry6NxrBTd5YfX8ORcXr6FRwUF99+oSE8o0KZvNeREux6qUFXxk55QcOXuMFqQQ+JxBGlVharOArcrbz5xk93EK7mwO2kdaxZJ+/yyCUSjMTwqSPsWV5DErNj/OXDT6Ki5mTUMvlGhqmkMbpjXWMbKY2C2yvmcLKLzxqY1Z9kBbUKC3Ifu56V+aPLqjwAQuW/Ur4rUSItrIzlkn2KtP23EjV0kXYMZ77gCAJ24/8bYtmGWnUTG4OW2I0Ie3De/tbZhpMx261/D04pJQA6JS3kkXPfJoeN2nxH7VRXJblHkmVMM5eUUdsPu0vo0PDm3KJ3W758+agA60dHm2OWIcnj6MSEqqriH3UiHceN0Id63iz1XJ2oZSUFVZ3HFWWwoYy8vnV93UnTGKpWrnA65i/yvMRyB194nRxeSRlCz1NAmBAA5pPKDuNAGAC0YvtuJtYxrHO7ZHz8hn5f/pmpy6V0MXhC9sWUkgc6NjMdsB864AuDTx133DidUC4Y3VKjP5QhZQ98MkE8fgYgUggAA2RTQB9z0nPWaDojbxT149QLfnFJcwa2PcSQi7g31aXhyRvcvuB/W8OhSFDc3gSvPk+hy73ME5eUkEJOOmN8zbrYcUpt2cXXmUtct4NkB59c2jFQsJZY2HkcwY4zAuh7OAHeiiEZjyN81j9GC4Y04UtEootEkIs9O8oi7irrahGpWeIRYNIpog5bPyCOuQMSwiuVPCgzzkUQqlsKwK8mWtV28QlzMet/cx+5jsQR96Li9edNY1j5oBbCMlTt5JB5WzSaH0vDknHsQwyMYy27Pr+DV7UYGkDIyHwfxizG6RdswZvrXjECVxG7YZyRUwRgtqqKhvEdVQnk5jmjaaORnwK3+FZSRQyJ6C3gmljviaeMYxRXEoynEVfPYjbz270TdbUK1EasVIugMYm2mesigWrjiimO5O43BjacHBGb6Fsw2iqcrB1AtSqe9ytl2AYPI49Nh47a0dK4+R8UjEVl5+ZaU7Buj4cm5koa8/EjyKIoZ5E9fcMxGxRKDCFSIxA9ZOS240O9eD6l0xRxRt3XAWrQPm8s+QOi0dIw+8xxa0NGg5Y3vzdHapFmEEMEaMsbgTV5+rZmWR6NurZMqdBr2kmw2hd1+Z/wAvOOK7RPy7mf+J14D+uZX1BWrWGAGlAhgPsIoZrAGY6m6zrhd1rwWuE05PJ3W8Oq2mMnf3NTw6NLRJ2YNT85dD2dxxVx2u/0KykTaeo5zVOXMGqDInUR6E/OSvaRQXo5XfcNQfhMzJj1n8tIyMoPIY+M7ojeBu8NoQReSd/PG7DCK2IYx6m4bxszppHXsm0hULLecfN5tQm4tGH42iDVj6TR5ekb0leIK4tWW0OS3VG8Ds6zfqlpGZjC4EXM9lnK+UVs1rkRvAg1+NBd8Pn0zSOT/4kZ63Jh7YMyi5RW8S2sYfFZH3Ja+I7YxaH1HJWk1S1Ux26fg/pvKpfbD4r/nTERE9JXw33MmIiL6TjE5ExERBQyTMxERUcAwORMREQUMkzMREVHAMDkTEREFDJMzERFRwNT03zkTERHR18OZMxERUcAwORMREQUMkzMREVHAMDkTEREFDJMzERFRwDA5ExERBQyTMxERUcAwORMREQXM8STn/UX0KgoURYFycREl9/Y6ZCeM47mPuzVulY1vuT9VwuJF8zO9WNx3bd5fRK8yjqzjb2P/CatU+m5z3yzG5XNRFPTOy1eZxXiDrvt7UJrvddZ91TYhi09/cyph8aLURx192t3vqJJcX3I9Cn5xpTTfW1HWfNx9L0BqyTHSPtZ94lUGv5jljPPOWOYX47MY98o19dAb7fOC3hMK6T1zRfeWhinO9ehjGV3X9W19LLagi2/a1sdCY/q2e2fT5wW9555z6/a9Hr0nZn9m+16PvvBZ13W9qC/EjN8zY/a1ZMb0kOsYYl/7GMW5Hj0UCukh67xOsm19LBTSQ6GQ0R5GWa1t0uQ8+5ssMyb6kqMOi/rCvWboWw0i3b/FuZ6qccmOK7penBurbI9m4tn3gkluN5t37PG+5+QYLn9uWx+riPfVY3xxbkzv8bqX69DwmXMpvYoC+jB5o9W9qUGymH4/iSc/AtgvIB8NQ3xTNwau5lHwG7EUdoCzHfbfW+OYOjuJIasgi3V1CLF2AGjF6P0IVtMllPbyiHQY1/LjAPrUgnO0tDWNnftP0G382XrjLTRtGX3yPidWN55oGt79GraLDtMmTc27vzn8+ASa9g6TZ+TCPeyo8t9UTfZ1HkMx0Rtbb0wi8iLtMduBM64A2Hufd+/QXDz7XjDtvQfOSSEIALC1DlwFRjxnvaYIwu3uMgBnzqEDRixzb6sW4/cXcf39ACaj7g31aXhy3ntfAM7kMXXQkkOdSvNTwGUzFQKwkmUW6y/tYou5XPF6AG+tAUMW44/OYemGlKyryO8ZV7C1jk3HlhIWHwEDxg1NhoPahI7mwxTOK4r3oxqqS0VcQQFTP3gsf1JgmI8k1i+/xagryZb28tjEADRNg7Y9ifwjkYe6p5eAnxUoynlpUtWK0d8GsK4oUJQpnJsbNSYXAF6OGMvaBy3vl7D48w4mp+U+dDQNT84AgA8RTGoatIU+4MMUpj1HLfUoIf1+CBNmMmwfxdK1VSNQTSF/xmMk9OMT0UCX162BQnbC1QBVtN5YwtCL86KBHuURtmaFAPbT2Lk2Yc2aqcY2oSMQqxUi6Axh9Wn1kEG1cMUVAN3TRh1r7zD0YvqAwEzfgtlGA68rB1CtHRGEzZXS9hiGsIM9ZDGuXAfm7M+Nb5nPodcxoGnQtCXgZ2PQ2z6Kt+a9tgBMVRmkleavO1ZQG6Hhybn7snuyH65ccqjXfho7Z2OOpCqWGESgQnTAv3J+HBDLEPuLmHppjorPY+rDJkaUcWTRgXNYRdqYidjLYa0Y/U000LtrQEQaXZfSOzhnLJmRreY2aWp+/e0QCjsouMvIoeMs7McFW+vIX3PGD8A7rtj2sPPBXUZBUplzAITPAeYjjP00VmEsVZ8xHyUBHWelxHTVjFOtCHssS5f2vBa4TVlM/72AzZ/ETH7kZQFTPzRgVcv9ELoRtu+Jl4RCDX4xrPLBf1FfiJnf5Xop696244WlUMjrIb3zZS7zZTbHeUtlzpfBXJ91kF+KOvmc7eLdJuTBt7+5XgDz6aOs31pI/dHxoqIdD6rHFfllx2ZTLcZ9Y9YLa84Xs7bv2feS9eKWHPt9PmfvK8V5n30F/xhvv3R2NPz3nImIiAKm4cvaREREdDRMzkRERAHD5ExERBQwTM5EREQBw+RMREQUMEzOREREAcPkTEREFDBMzkRERAFT0/+E5MuXL+4iIiIiOqRTp065izxx5kxERBQwTM5EREQBw+RMREQUMEzOREREAcPkTEREFDBMzkRERAHD5ExERBQwTM5EREQB0/DknHsQRTQq/8SxUnTvdXgVx+1fQRkAsgmrLJF1f6qMlX7/8ygvx52fkY4VjSaQM4rt77bLUFxB3Ng3vlz2PEbl+ZxM1eqxWeqgLlIfij6wepZLGSv9Ur9z9GlX3yMPcn3J9Sj4xZXycryirKn4xMLAkO8dv/bxitFeZfCLWTkkpL7hjGU5JDy/N4eER66pR8OTc9dDFaoqfmb7AIQHcaHNvdfhycdNTyi4cncYLShj5TEwq6pQ1VngtrsTtWB4w/jcm0GszVjpFoloFLFpzbE3AFx5bn5PEl0QjZnErCh7Dtx8kBM3/J08EqoKVU1jcOOW0Rg5JB5HkPY9n5PGqx6brQ7ql5tZw+Ab0Yfu55OVN3Q2gWg0hkcFV3nkvlG/KlIjLa6N5JB9irX+tBE3dpF0DWa84woAdOL+G2PbhlnWXCpiYZC0DSNltlv/Gp5WTAJySFwyY7R9n8j3nB23q+SRPiP2qyqS3aJIDNxu4pW5j6S8nMJu2F1an4YnZ0txBclNSJ29UXJ4+jFhVZRDOIKQu8yk5YHT5tYuJI2bUVbWdh1/e1FOhwB8Qh7md7XgQj+Q1wAU97Ab6TCutwvxvl3suQPuieJRj01XB/XKIZU3B64tGL7bibWMaxzenRSJ23Gzf0I+L/9N1eTSuxi8IHpjy0gCnRsZj9kOKuLKp48Hx4KTrJZYGBSfPgIRZygHsimgD7jpOes1daLDa+Jo5pHiHrxqoWUkBVWdxRX3huIKbn2MIxFxb6jPsSXn3MwjaOH7+MUriR5BeTkJxMxxXAuGN+JIRaOIRpOIPPMYCJjLFel4TbOMV7eNZQxzmbFtGKlYSpQ9jmDGPEYhj08AgDIyG9LMMb9n3Pw5pDbt4qbCOjhehUeIRaOej2qoPs64AgAaHl3yWP5sIhWxMGDMRxKpWArDriRb1nbxCnFj1fQ+dh+LJeiuhzPAnSii0Rjyd80VgSp5ZPNmjUv7xmrqw8atMRxPcjZmzUr/hcpkeSRlZD4O2gm/uIJ4NIW4qkJVZ4A7HsGqOykaKJbyfzZhECMisYQxC7HMWF6OI5o2GvkZcKt/BWV0IfncHJXFsIYrYuTWNoyZ/jUjcCaxG/YZmZ1krINjJlYrRNCRH9VQ/VxxxbHcncbgxtMDAvPJ4xULg8Zso3i6cgDVonQaq5wA2i5gEHl8Qg6J6C3gmf25RLZKHpGWztXnqHgkIisv35KSfWMcT3LW8tCgWMtJDVPMIH/alfD74tbop6PackJ3vHIZwlcZe9LS4RVzRN3WgU6z0Ez66iw6EbGeq1ud+s0gEDHPrbmwDmoRQgRryBhBT15+rZmWR+VbEyQLnYb9uCCbwq7XhMErrlg+Ie9+5t9UnLEwiLpiHpFdiQDmI4xiBmvmY0jpHajQaWkt/IA8Un2ZP4en05q10nBzU8OjSx4TxUM6luScS79q2ItgsnJmDVCkW6htGDOnk9bbdDeRwHCbMdt9kLNeWBLbfZa9JfabmzGs9c9guA1oGZlB5LFZfhMwnqHb+8rHld4MvdTYJY7vB+ugNi0YfjaINWPpNHla9Dcxiq+yhCa/pXobmGX9VtUyMoPBjZjrsZTzjdqKuOJ4w/sm8LyxM6LvgVcsDBT5bXLpcWPugTGLllfwLq1h8NkwWtCF5N28saoXRWzDWC3xySPyd8Q2Bu1HmhWk1SxVxWyfgvtvKpfaD4v/njMREdFXwn/PmYiI6DvF5ExERBQwTM5EREQBw+RMREQUMEzOREREAcPkTEREFDBMzkRERAFT03/nTERERF8PZ85EREQBw+RMREQUMEzOREREAcPkTEREFDBMzkRERAHD5ExERBQwTM5EREQBw+RMREQUMI1PzvuL6FUUKObPRNa9R12yE9IxFQXKxUWUAGBr3Cob33J/CgBKWLzo+gx8Piede++8taf03eOwrsZnXyGLcfm7TrjSfK+j7kvzvZV1S5Xke8X3Pilh8aLU7+T+7Nn3yEmuL7keTVmMS3HF6q9SfGiKOt4ad15nTX3zWzqoXQ3u6zKU5nud1+WVD6SyA/eV66tRsV9vtM8Lek+oR1/47N7QOMW5Hn0so+u6XtQXYmP6tq7rur6tj4XM323b90LGvpLPC3pPbEEvuoq375nnXdQXYsbvnxf0nnvGUTNjesj43XNf49xCoZAe8jj+ybOtj4VCeigk13FRX5gzW2FbH2uKeqiPXx+yZMZEX3L066K+cI91WrPMmN4zJ2qrONdj/W7b1sfM+9tycFw5OYr6Qkzcw3LdHNg3v7XPC/qCGXOkNrZ5X5ewrY/Feuy4XkN72/UhxzTvfe38dDSNnzkXdlBABOF294ZGyWL6/SSe/OguB3DmHDocBVmsow/4yTn6KaV3EImu4ryiQFF6sbjv+JDB+xrCZ53fINj7tt54C01bRp97lxOpG080De9+DUtlrRi90S39Td6yWFeHEGuHqLP7EaymXePtH59A095h8oxcuIcdVf6bqsm+zmMo1goAaL0xiciLtHNWs19AXv4bAPbTWI0OQPTibkz8msf6iV0BasXobxq0BTli1dA3v7X2UYx65QCL13UJ2YkpnLs/5C62VeSREgqqEeP3C8hHwxA9qhsDV/MouPLH3nvgnBwS69T45AwA2MSIe9rfIKX5KeCyGfxbMfrbANYVBYoyhXNzo0alGfYLyL8EBjRNBDl1Cov7wN77TeTPLkHTNGgLEUw9FUm7e3oJ+FmBopzHzv0n4uZsH8Xby+siuT86h6UbRrN47UsO2QmPNqGj+zB1wMCSDuXlyMHLoxRQWYxLcflAW+OYOruEUUfy9Msj5tL5dWBOivFqwRjgZbH+0j6K+fhz/fJbjHpM7A6r8cn5xyci6Wkalq8Cmz81ssOXkH4/hAlzxLS/iF5l3Ui+S8DPrmDVHkbEGgW1InYN2CkAHWfDiHQYjfnjAPrUAkrIYly5DsyJcx94LQYWpfleKK8HxDXNAdcvLvruSybxHK9RnZRkYrVC0zRo20NYNQaWVKf2Ubw163MBmPJ4PkkBtTUORVnHwG+1TgB8ErlvHjFm35qYiI1vif6ydM1cdZ1C/oy9ato9becDr+fch9X45OxWsURwBPtp7JyNORviqrn81IpwVN4AAB04h1Wk9yES+wux3NDaEcHmayOoba1j01ymOGMu5YgEbuozZ+rtYUTMQp99qYTFi6Kjez56IIPcN53LrzUr7KDgLiOHjrOwl2S31pG/5oofktKescDdHkbk5boxqSgh/SKCgabqyw3om8dtfxG9rwegabWvWpbmp7Bprjr9MIXCyxH7Ra+qeaQVsWt2jBePLsXgGNbjD1v35cql9Lq4H0IflfVCVMWLLEfn9aDd8X3GA/7iXI/1u3hBrfLFgO17HudovYAjv9Blv1jgePHJc19Tc70I5WgXqb7FTwBfJgkKr775eUHvcb8AZr2s4q7fxt5fJ5N0/zpe5DH6pd99LJW7Y86J5H6pyqtvBogzz9htt33Pdb7u6zLJL/q6jyfnEVeZMx8clDuOhv+eMxERUcAc/7I2ERERHQqTMxERUcAwORMREQUMkzMREVHAMDkTEREFDJMzERFRwDA5ExERBUxN/53zly9f3EVERER0SKdOnXIXeeLMmYiIKGCYnImIiAKGyZmIiChgmJyJiIgChsmZiIgoYJiciYiIAobJmYiIKGCYnImIiAKGyZmIiChgGp+cswlEo1HjJ4Gce3udcg/MYxo//Ssow/l9iaz7U7bcgyjiy2Xr98pj5ZCQy6LG/sUVxN3faSljpd91jTWez0lSXo47rrW8HG+6OqiL3Lce+N0p7j5Wxkq/q49SFXJ9ecUj531v9VfpPm7eOnb3vSA5qF0N2YRn+5WX4857zituy7nsoH2r5on6ND45dyehqipUdRZX8Ao3fYPO4XQ9VI3jqkhPKLhydxgtyCHxOIK08X247dNIxRWk8or1p/exupA0ylQ1jfvhK0iMtABtw0iZ+/av4amj4WJ4VLAOK270Ws7nxBCBLTatSWVlZJCw+gAeN6ajnkS5mTUMvjH6Wz6JlaJrB88+BiBy3+hjKlIjLa6N5JB9irX+tHGv7yLpEajRN2vFg2Q3ROB/DMwafbhz+ukJv489+PW9oChmgLtGvH4Oj3Y1kvftV65yAMjh6QZgZwRne1tx28plKmZh3p8+Md4vTxxB45Ozi3I65C46ohyefkyIm6i4h91IB0R46kK8bxd77gCHMlbu5BG/2+ne4DyWLPsU+btJdLmKP30EImaLdieNJC7tUNP5nCRiQJOesLs50ILhEXfNUaUcUvlBXGiDqLO7nVjLuAKMVx/DJ+Tz8t9UTS69i8EL4o5sGUmgcyPjHCwW97Ar/w0R+NciceP+78IvE7tINSDYflc8+16AtA1j2B23HVowvKFCfX7FvQG5B0lE7g66i23hCJxZq4y9fCc62mqL8Y48cQTHkJzNZaKb2J1IN3xkX15OAjEp+Of3jJsth9SmXWwqL9/yTLRim+tYohQrj4G41PDmMngqlsJwm7yvhwPOp5nkHiQReTZsdGRqmMIjxKJRRKPxytk2Hd7mzYOXRymgxEx2ptY8k00geXoGw47k2YLhjThS0SiiUTlmmUvnt4BnUg7xifGHyhM1OIbkbC4PpzG4EWvY+rtQRubjIH4xE2fbMGb614xAlcRu2BjdmIoruOU1MwYqj2UqZpDv/8WRzM1l8Hj6gOdPB51P0xADtEZ1UpJJj1/eDGJthunkSKTlSO/lUQqsbALRaArxjVonAD6JvLiCeDSFuKpCVWeAO+ag15h9qzPAHeP5cpUYX3OeqNExJOdjVMwgf/qCoyFaRlJWoIK1FCXkZh5BM0fFt19Bm47ZleZxLAAoZ/KIGMtgbl2xyiUSt2rn0xzKWOkXHd17UERCCBGsIWPMfOXl15ppechP+6lS6DTsxwXZFHb7K+95U1kzFrjbOtC5mTJm0WVkNjodK2kUAMUVxNNxqKr3qqiX8nISr8xVp0tGbjDfieozY3ULOiLOzwEtuNBvT7UPivG15IlaNDw5229Cx/CocAWzNY9qDlbOrAGKfDTpjb1LeSQeimoy38STX/xSn1+BIi2zVx5LHC+zAedsV35jz2vU5eB9Pk2lmMFa4RVumnXGpVcfLRh+Noi1S6KekqdnxCpDcQXxasur8luht4HZZuxjh9AyMiNW8Bz3bw4Js19K93dsY9DY3oXkcxh9OOb7WIy+nXJmzZ54Re03pOX/KsfNSqqqCvXNfSh9s1AfdonZ8OmkdaybSGC4zflfncSsFVifGH+oPFGbf9J1XXcXun358sVdRERERId06tQpd5Gnhs+ciYiI6GiYnImIiAKGyZmIiChgmJyJiIgChsmZiIgoYJiciYiIAobJmYiIKGBq+u+ciYiI6OvhzJmIiChgmJyJiIgChsmZiIgoYJiciYiIAobJmYiIKGCYnImIiAKGyZmIiChgmJyJiIgC5viS8/4iehUFykTWvaUu2QkFiiL9XFxECQC2xq2y8S33pwCghMWLrs94ljm/Qz6WXT4OcTVZjMvnoijonTeOPN/reYyTrDTf67jWZqyDupj3SNX7pITFi2a/M/+u7HfkR64vuR5NznvZ6q9SXGnKOpau37vevrWD2tWwNe7ZfqX5Xuc955VH5Do4aF/5XpZyypHox2T7XkgPhUJ66N62e9ORFed69LGMrut6UV+IjeniG7b1sZD5u237XsjY12Z/XvzeM1d07qBv62OxBb2o67r+eUHvMa8hM+ZxPfI5FPWFOXO7dIwTa1sfC4l2tuu42eqgftv3evSFz7rRh8zfJZkxcQ85+nVRX7jHOq1ZZsy6v33v9ar3tHdcOfEyYxVxM1A+L+gL5vlJbWwr6gsxEZsqt23rY7EeO67X0N72vSrHNO995fxyFMczc94ax4gaRthd3hBZTL+fxJMf3eUAzpxDh6Mgi3X0AT85Rz9774Fzxsm1xoaA93uOT2G/gHw0jFZnKQAgfNb5Ddiaxs79J+gGALRi9Ib4rTl044mm4d2vcks3Wx3UK4t1dQixdog6ux/Bato13v7xCTTtHSbPyIV72FHlv6ma7Os8hmLiTm69MYnIi7RzVrNfQF7+GwD201iNDhj3dDcmfs1jvclWgEp7FbUSLO2jGPXKAZZWjP6mQVvoc29AdmIK5+4PuYttFXmkhIIaQbjdnRu6MXA1j8K+Y2dHfjmKY0jOJSw+2kTf/UlE3JsaoDQ/BVw2g38rRn8bwLqiQFGmcG5u1JlQ9wvIvwQGNE0EOXUKi/sAUMBOQexSSq/C+NVemvgZWJo2vqN9FG8vr4vk/ugclm7I31DC4iNgwKOTZCc8zqfJsA6OyYcpnFcUKEqv0Z/pSF6OHLw82oQ2XZOaYMpivCIuV7E1jqmzSxh1JE+/PGIunV8H5swJGAC1YAzwslh/aR/FfPy5fvktRtvt8no1PDlnJ85jKrrsPbM9shLS74cwYR57fxG9yrqRfJeAn13Bqj2MiDUKakXsGrBTALqnl63Z9PkXQJ85G24fxVtNgzYHXDdu1NJ8L5TXA9DMcvl5wn4aO9cm7EYDrGdYjWqg7xPr4PiI1QpN06BtD2H1aZAD53fAvOc1DdoCMOXxfLIZtd54K+pE07AMc1ITMFvjUJR1DPxW6wTAJ5H75hFj9q0tAT8bz5fbR7F0bdUYHE8hf8aYUQPonhb1NfC6Me8pNDg5GyOJlyNQlBFsQvzeiBMFjGR4NuZsiKvm8lMrwlF5AwB04BxWkd6HSOwvzOUGO8AtR4FzxrKXpT2GIWkpsc+cqbeHHasBpfSO67MlLF4UjXw8g5PvAeugNnLfdC6/1qywY6/6kKeOs7AfF2ytI3/NFT8k1lJuexiRl+vGLLqE9IuI5+pYcyihEMTHKPuL6H09AE2TZrQHKM1PYdNcdfphCoWXI/aqQNU80orYNXuqbQ1ctocA6/GHrfty5VJ6XdwPoRvHeFmo4mWL+nk9aC/O9RgvzdjfVZzrsb/384LeY2y3XgywXrSRXxawXyCoeMHJt9z1MoD0XeLH4yWfE8jRLk1aB3Xx6pufF/Qe9wtgcj9z1G/lyyjkJt2/jhd5jH4pxQJ7u7PcHXOagfVCr+cLVd+eI+5Lbbd9z3W+ni+LuV70dR9PziOuMmc+kO4/v350BPz3nImIiAKmwcvaREREdFRMzkRERAHD5ExERBQwTM5EREQBw+RMREQUMEzOREREAcPkTEREFDA1/XfOX758cRcRERHRIZ06dcpd5IkzZyIiooBhciYiIgoYJmciIqKAYXImIiIKGCZnIiKigGFyJiIiChgmZyIiooBhciYiIgqYIybnMlb6o4hGE8i5NxVXEI9GEX1QsaU22QTiy2V3KcrLcSSy7tIcEv0rqNzb5N6eQyIaRdT4sY6XTVhl8nfnHpj7xrFSNArN63Pta9dJFNGq53Ty5R6464YcpD7keZ8cpj+SD+l+9IpTh4wFJ5Y73h7UN7+5g9rVcKjrcucJQ3EFcfk7pL5RkYvc33cE9Sfn4gri0RgeFdwbhNzMI2juwpoYlX77latc3ESxaedRy8txRKM34d7b5Lu9bxaqqkJVVSS7RVFOiyCtqlDVNAY3norGKK4gCWPf5514NCOaKDezhsE35r63rCCZexBD/q44rroxjBb7G5tLcQWpvOIuJYnch+7nkxWJ9jD9kXxkn2KtPw1VVZGe2EXSK3BWxIIyVh4Ds6oKVZ1F57RR9yeSd7w9qG9+c8UMYMbZ5/Bo18Ndl2+eMD6DsPUXEo/N+3IWuG0mbe/vO4r6k3PbMFKqitk+9wYxeriZV1BfaG7B8IYK9fkVV3kXkqqK9ITzqC0jKajqLNx7mzy3F/ewK/9t6BqpTKblzBo6Y13ij+5fcD+f8rhRO9HRBgA5pHAFuO03MmsWZazcySN+t9O9gSw5pPKDuNAG0efvdmIt4www9fdHMuXSuxi8IGqxZSSBzo2Mc2bkFQuKGaxF4hC13IVfJnaRcs+QTgyveHtw3/zm2oYxbEyqvB3uujzzBEQuS55OYND8u7iH3UiHcV92Id63i70ifL7vaOpPzr7KWHn8ClfuJhDo0Lx503dJpLx8C/m7SePm9Nb1cAa4E0U0GrP3Le5hdxOIG7OdQI44v4Ja6o9qx/o8ZlViAQWdmMnOjLiHsY1gHjvkLM7vGQO8HFKbzk2N1PDknHsQw6PIrLVUHEjGrL9ySUQsTdzCzAHnn0Miegt4Jo4RTxvPHto60BmOQDRlCy70A/n61va/X8UV3PqYOKD+qDa19keqm28soMDLJhCNphA/pseHuQdJRJ65jt02jJn+NcSiUUSjSeyGzVXTxmtwcjZGEps37fX7zZsNe0B+HMqavaiVeyASbkoahbUonXiVNsbT8nJX2FweAUKnzaX2ECJYQ6YIAGVkNoBIfWv7363czCNo5kzk9ito07FAt/+3I/cV5/Kr6VD9kTyFTsNeks2msNt/wTeQW7GgrQOdm+bjgjIyG52IN9Xg6OC++c0VVxBPx6Gqh1lROsR1FVeQ3NTw6JJYHX1UeIWbxsqKWAJXob4ZBI7x/mtwchbPhcXLFcb6fd+sI7h8DeXlePXnvdLbdrGNQWNJJIeU1RjSm3jdSczCSDaX8kg87BLXeTdvjJ7EMX7phnju8GwQa0aDrvXPYPiYRlVB1fXQbH/x/EWZSH/19v8+yH0liuRpo69Yb4Yepj+Sn5aRGQxuxER9WcufOSTMN909Y0EXks+Bm1HXY6um4dM3A6ScWbMnAVH7v4yp/l+IHOK65BUVNY374SuYVZPokt8SP+b7j/+eMxER0VfCf8+ZiIjoO8XkTEREFDBMzkRERAHD5ExERBQwTM5EREQBw+RMREQUMEzOREREAcPkTEREFDA1/U9IiIiI6OvhzJmIiChgmJyJiIgChsmZiIgoYJiciYiIAobJmYiIKGCYnImIiAKGyZmIiChgmJyJiIgChsmZiIgoYJiciYiIAub/A8kKs2HcBebPAAAAAElFTkSuQmCC;" vertex="1" parent="1">
          <mxGeometry x="880" y="40" width="487" height="288" as="geometry" />
        </mxCell>
        <mxCell id="hQbRVMWu5Df9wvZDzti9-2" value="" style="shape=image;verticalLabelPosition=bottom;labelBackgroundColor=default;verticalAlign=top;aspect=fixed;imageAspect=0;image=data:image/png,iVBORw0KGgoAAAANSUhEUgAAAjwAAABtCAYAAAClQrvhAAAAAXNSR0IArs4c6QAAAARnQU1BAACxjwv8YQUAAAAJcEhZcwAADsMAAA7DAcdvqGQAACyeSURBVHhe7Z19dFRVluh/ZSNgAEHsERoTIJUC2kq6e6adbkdHOqGRFOoEgh8s8c2s5QQEHRuFjrAk894835vVwQEzsGQcvpKMa968xkmLhKQVioGm0vi0P8aetk1FA5WCfDSCLSCfAiL3/XHPvXXvrVtJgFSsquyfC2/dfc49VXfvc87de59TFY+maRqCkIq0V1M8rZKIKZhFbXQtRbZKvWDPEryPNzBrc5S1052FKYbbPW+GsnT5/GlJiCXeMhrMcx8PTo+wdU+shu+5Lcx9fR6VVNC0cwE5saKMJFTupWxb7Nz3XBO7Fl7pXXdSPbOwT3Xm9rlqmE/hC1CxdxcLJlhrC9dEBs5FHnF4BEEQBEHIdK5zCgRBEARBEDINcXgEQRAEQch4xOERBEEQBCHjEYdHEARBEISMRxweQRAEQRAynm6/pfWzn/3MKRIEQRAEQUgq3//+952ia6Zbh0cQBEEQBCETkCUtQRAEQRAyHnF4BEEQBEHIeMThEQRBEAQh4xGHRxAEQRCEjEccHkEQBEEQMh75lpaQ1nx94d1OkXANfLjpLaco7Uj3PnG775v83+X/7BSnLeluDyvpOD7SVf/J0LVkeIS0xuPxqBemwHYu5VdYnikkur+e7j8Vyo3XmcSV3H8ql6crvb2/FCvva8ThEdIaM0Fp5Ckd51J+heWZQqL76+n+U6HceJ1JXMn9p3J5utLb+0ux8r7mS3V4QuXFVLc7pT1ztdcJXw6dm4rxer36v5nVdBoFe5aY8iV77NeEylX9uOs6qZ4Zk13y6BHxZ798l+ir7xJ99SDnPCpySCQ/e5SuV3V514cXwQMezyk+VrLoq+/y8WH9eqOdgXLsN1xtb7Gtdwkh+xUmnZuK7f3F2ZYHPJ6LnNwRs2fMzh7OWfrEZ+b9W+rvOMolWz273E1vfX38UtizhOJN5uiMG2vWkhidVM+02yo2dtU8bdzX4YPx48si6/rwgrr/Cxbb2cezbier3fr3mDzcdB1iiXUO9HoT28fQtfO6mdVcMj6/67xn3N8pPn41zMmz9vu99GGYjw879XCSj3ccjbWbrGMS+FIdnoyjvZri8kTT9EDGT8XeKNFolOjOBeSgdLW6gKaoLl873X5FUZWqH43S9JyPWcv060LlhTQvi7U1SNPg9FGOaT68j9yOdyoceeckmqZx6YMwx0YW6PJHcsnSQNM+5ePGc4x+5Ha8j9xO9tcHg6YijYmqjUdu55ZxeqStaQPr2D90Ur0aaqNRotFaeFw9MPdUUfdAk7J5C5W2yR1zIi98IWKRxbd1zrifm7IZ77Dz5x80c9zSJ25Q9332nfe58E29rvfeMQzSNLLuUOeP3M74Px7K8G/qcje99fWxf1EPzscb7GKrPR6oY77THnuW4PUWUrnfImuvppJafXxu9lP5Uki/r9NH6Hovy7SHPr4u8Ol7MPaR2/E+4mPwbw9zVtPg9Kdg2GIqHP/ggq6XroO0bXmfYyfj9dVfx2TRuWm+Oa/FdF3EWjUHRqNNVEyeRcXCHMtVOSzYqcr3zqXuJfXs2ROhQM23TQ/UcbwLNO08J39uzHsFjDh4gJOnY/f1+QfHuDhSZVg09Hlyy7t0/Pa87f4//6CZ6JYIZ9CzME799OkxCVy5w7NnCcXlSyg2PNH2av211cM0ZRZv1SKze6lGmbreeq3FeYhFDUuot11sJ1ReTPUmI+JL8JmMdturKS5fwhLLZ4qLThJeV2161/q1IZZMqySyrazb6HQg0tba4hTRGWzGn19HodNOcYSoaq1QDlGIembB4zF7mJGAuSYMg0cNBc9Fzn6axeCDzbHoHPAcPg4T4Yg10gQ4e56LtjVl/RjffmaXfylMLiAPCL3ZwtyAPqHnLKzA/3rQkVXQHwBNz/lsUhuTCxgM4LnAhROx+9Tv7wJnTzr6hMcDnOSMZzTsU1mFX5x06Ockx09mc8utPeuvT8rV6/5DPTg3z3IW2PDnWR+2wPS16kEcE3UG6/DfV6TKy6kI13MOuNR1jsE3fULHq+8SNTIJZz7l9OibyQLwjGT0H5/jzGEPDB/DyGxDP6phD3BrLnnzvsHNI3vQn+XCvi5PFm2tUKC6dU5gLrS22SvsqaJ52VqUZuOJNMOUPP319AUsmOAo95znAlkM9niAIQzLhQsn1f2dOcqRk6MZfVPsvvGM4hbl6Ovn+uH62wrwPuJjuNHsFervSsv7mit3eIBIuIAa5T0WLoIa5c3XBdX0NGEBu5RnWptfR7BdDYTNumyX1UuNVFO8CGqiu1gwoZPqRc1UGJH9lHr9QbhnCWVG1BAthW2xy+OJUNlaGvN6F1XTSYJ2AbZBqfpMnZuKqZyiRzTR7j4PwLY62KhHlf4XqghRxNq9Ffjm1BKNdtMxByQRKqfZnd221gZaptTYI0EXOjdVgjGBtkdoUfaKRpuoCFfy6WkNho8hO/s40Vffpe29LMZ+fQhon3Hh0DmGTNUjxbE3dXH89/D5qXOcYbQePf5FNhffO8Il1JrxoQhtW/5TT6OrCMOMNOLWnDOzvH/IYcHOUuq9XrzeSgo2qqzfVRHf1iDU/Z3somPLf+oP2NMA57lw0NEnujQ4c56LB2G4in5vPtHFydMx/Vz6sAuyR5rn6oXj3BD3QXm/2qIbpq+lhvl4vV4KzaDj6rj46XEujjKysFkce/9TvcDZ/2z6OclRczwb4l7oL4nlySNCs0pcdgbrsOYwjSxmqZv+jeXcN0vtz1X0wHx+awW33Ko+/8lzXNQ03fE/eB5Az/zsO8foO/T+bde/Bad+DPEV6u9Ky/uaq3J4fA8EyAFy8vzma3wFFq80toZYtk03ZM7CGgpW6xma2KMtQuXjzVQYyxy00by/gTJ1beELDTRHoLOthVnGQ48iSueYDbjgo+JpVXdCgLk005agXQDmlJrOSVsrZoSpJN1cV6G86DwKLBGOEE9seaqJua9XEQLypvhiEeP0UmaFIy57BDoJts6l3BjoE3z4VTYAcgg8ABdOebj0YZho1814591O3vfgyI6jXPLcwJCRWQweoUfMw8aP5uLpC1x/YxaDRw3VI4kRoxjBOS56wDNiLNnzbidv3p/i/R4cj1vjHhjHfqG9mmJvvXJca2BRdxm+HnBp6+RZ8HhGcYthz5Kvcjp8CjxDGTIyi+tH6PebNX40F09fhBFDGTwyi8Ee8HiG6tHvKUMvFzl78quMznbXV7KOqUCo3Mt8VFByX70t435FqKzr4BuH6PeXPZrhJ85zyaMieeO+sZwfPkj01eOMuG8sg5z6MTIBTnk/HJNFUVWtmbkufB1mGdkagPYgzQ+UuwfR09fG7GPZZ9W5qRjvIqipKlKffxS3fM/IbDdzmtEMGQWXPoxw4Vu5DDPuz+1+E+nBRd6nxyRwVQ5PT4TKjQkoSq3pnBjrjaXUm4bxUbG3lHrTCcqjYPIstR6v/1s7XXesGt40BluI+h4yPKZT0h6kjgLyErTrJG8KsSyVLunVdUJvaaNZrffbbLqnnoZ8X3yU3x6keYpyqEG3B3rGEDoJvg5DbtQjgeHZN4IG2rCh+pKGNpjrbzrO6S49Yj7bcZzBI4ag3ZgFBz/lc03fK3CaLAY71o4vnTqnhxzONeUBcOw3zEAjB1++LrKNvz31tBjBVE8423Le16cqstWGcP1NxznTpcvPdRxn8IjBoA1lCJ9w9jRo2nnOHlT9SgPt9AkujBzVb3t3+t0O3eKLBYC+ArpZSDSxjev2IHX5pWRpMGhEFmc69L11dB3nzE1DGTRsKIMPHlN7rs5z9mAWw8fpe/I6O0bb9ljZ9GNkApzyfjgmj9h+ndp8KLAE3p3BZtu5K9NLMRck9yzRHVUjkWB8/nG5ak+aj8FkMWzYSY7/9jxnfv4ubVv+kyMHz3Ossdm2twfr9U49uMj79JgEkuLw5E1pMbMilWF9mMS+qVMGagOqThFr9xZQ6fWyZE8OCzbqr/W6yhGaXk5FuEzJ6qGHDE/LanX9tDrmblxADgnadZCzsIa5rxeqOsVUt/fuOpMJAeaGZQ+PHes3Ccpgs1rum76WWpRNH4faqiKVGYxF+53BOrDtG8hhwca51E3z4vUWUvdADaNGeBj0dR9Dfmd8qyMC3xzDIA9k/ZnP3JdxxOPTU7sjxjI2V+0l+OknjPjeWH0JxPJtkY6DX2XsbUPAZY05tsZtnGZYeX8wYQE1UypVn/BShp4ttY2/1QXULMyJ6xNxuLQ1cji2b6RE98HYO/WUfdadk2J9Ah9jsj3AEEZ+76uc/qmKfnN9jByhN3+p6xMYMaT3+uuL8v60RTcUVVXQrJaivdPqmPt0kcqodTO/Wcf1tGYqqlReIjuXsUQc9hjJGEvW4cI3c8nyeLjU9QkXD6m65l4r1X5v9JfM8mRh+aZh5ZQayx4cPbDzWfbkdG4qVtk267e4YkvDoTcbiLxgPMe8ak8anPuFMUd2MeR7YxjESMbM+1PdCZp3O2MnDuXmkgJ9/Djv16kf8/QK9XeF5X1NWv/ScqjcS5kl2+N7romK1vlEnt4Vv2lLyEjS9VdEU5Vk/Lppf5PufUJ+aTl1Scfxka76T4auk5Lh6S+sX12OOjdDCwMCj4qI5dg3x4zA5b7S7ZhRuNxfuh7TEpf7SItjEkjrDI8g/FNjLZqm4bnuOrTLl7nuuuv09V+Px3auoe/8NwZSonNrfY9yqC5fvgwej1nem3PPdddh/SaC8xyPB+uQNt4v0blxPx6PJ+5+jffrzbn1ft3e7wclZRZperKuocZ2v4a+DXunw/niWfOdt5W2rGuosfV36/06x49zPDr7u1Vffd1ed/YwztPRLv/UWJtwvFvP3e430Xl384tb/e7OQZ/fnOU/+Iu/tnzCvkEcHkEQBEEQMp60XtISBEEQBEHoDeLwCIIgCIKQ8YjDIwiCIAhCxiMOjyAIgiAIGY84PIIgCIIgZDw9fkvr8uXLXLp0iUuXLjmLhF4yaNAgBg0axHXX6f6l6FRIJaR/pgZih9RE7NJ/OHXd13Tr8Fy+fJnz5/W/qipcO0OHDgUQnQopifTP1EDskJqIXfqPoUOHJsXp6bZF8WD7FokKhFRG+mdqIHZITcQu/Uey9NxthufcuXNOkSAIgiAIQlLJyspyiq6ZbjM8giAIgiAImYA4PIIgCIIgZDyypCWkNX/12hPqL98pPJa/jGc9ZlD5/3log0UgOIme2tCd+uLUm3vjE5YaQl/zROMPlKYNDM33//mGknUW+cDg7v9V6hSlLG/9z3rztSxpCYITLfZA06znzmMGlQs9of+1e+sxkVzUmXxiutYcuv8yzoWBjDg8QnrjUbHbADoKPeFRaurtUUgmHjzg8aTGURjQJNfh6XiFkhX7nNI0oItXZi8nHT95KrNvRT4ltV02WVdtCctDNpFiH8vz88lX/+x19rF89it0AWigcZZDL25j57JtBJ/dxluhs0qul58L7Sa45ag6P8vBKr3ezmW/5g/WTErLr5V8G78LW+QpdswcLHYENe6UzW1ynX0rYv3BXsd+3RFNQ+MEW+f9iMAdP2LmHfX8Cg3Q0PbVM/MOpxwILU/Q19Q8lj8A5oPQcsf4tIxBF3tYdZZv0U/MTiW80gEaGkf+9Sdse/onbFusjpWtnOUMkUpDvpMDn2igaZzdszNWb/FP2Pb0L3SbftLKbkP+rx/pGRtNz9xo6tjjecqSoO93vEKJoeO4Z6nlGqVrHbvdLjru++J7vyG894R+cur3RDa+RXjjW4R/8nsuqjpn9iqZo+zie78xZV3tet2e9Hqt5X1Jch2ea8Y5IQppS8crNLZ4LQJ9UAaqohaZg1kbCIfDhMNhVhXpoq7aEvLzn+ANo45HJT1u/QaFq+cQeHEOdxcNs2REjhJ5F4YZyZFjH+G5V68386+htemskkf4fztu4nsvzmHm6jl8Mz8+s5Iqx0wgzo5AV+2TtCzV7R2cvZUnHc7x1JV6WTgcJlju5f6lj5EN7FsRMK8Lb3+MsR4Pnq798Dd/S/CXf8vOF2Hzv50EFeNPe1HJf1nKd/HoD441sCEcJhzeAE/ZnZt967eCzyLIONSD8ymrNYBQG/4dMXu85HQEgftfNmyyiqno43wVaty+fBur1+/DA4z9q4eZ89LDzFn3MMWzR5BdMoVhDMdX8TBzXnqIOX/npX3HEfB4GDY9oNd96WHmLBrPiNkFjMXDxzsOMfHvHmbOS/fyja7f0faJR2VudMvGMjndnKcoifr+vvVbeXBHmHA4yLKWVRanBiCbx7Yr/e94kK3rVa912O3jdut9n+Dj/TDEOL3xVnyL7iZ/0d1MmnyUj5UTM3yaLstfdDeT/iyLkd+9lcGc5zS5Sp4Pv9KdoJ70eq3lfUk/ODxtMS/U4qE6owC7bDn76OKV2U/wRmQ1AZv3asXq4RqTlJ6deaW2JC7ySBSROD1iY5ptM9oQp+sa6eKVxS2ULL3NIpvKKvXgcqWjjQ+cMiC7rJFweAP3GwINNM5w6vfW81gm5A9b3mfEvRON2nCzjwl+S6ZE1f/s/RPceOshfv7sNnYu282hT+zlzvpf5nkmEGdH4OAB8KvukH3Pg3DgoKXUyj5eOrBcOcH7aOR+eMo6x2ho2Xfw4FRn7KjxUftRvVydu6rT5yfXeB1azqpJy3nQXiPDUA/Ol63WAIoe47HxdpGVrmj8CO3avZXbAlP1k6KnWdbSyBFQutZA+4iWw9/iOwXWDAxw5DiMGxE7R0PjDJHfjOLO6cOAj+jomsjXvqqhMQxfyUgOvXfGUd/SXqLzFMW97++jseVB7hmPbqOlt7F1d4InUbQFJqle243dzuw9yA3fHeMUA3DxONxwk1N6go+P55I9AWAoN38rrkJakXyHp2ErrNO9zQ08oaeLQ8tZNSmoIoPltKzfp4y7jKAZLWTz2PYN3O9bRjDc6GpAq1cc3uGn0YwI32Ar61WUAU+s0Ntf/pQRxVnlXbwye5XpEYe361GjtY0N/tWu0Y3QO3Q7qQjwSmh4wsU5daAiOI68z8+XbSO4bDftx1QmpOXXtH7tLnKt49vMlBzldztu4vZpw/EAZ450cWrsnSrzM5LW/zhqb98IQpyZli+hPHOJ0qISfl27t5Io99dVuwqMh2pHGx80QEk4FgVv7TJiRg8e2viHf/4af/+Xo9Q57H22kpl3/IiZz0dVvWwe215CY34++fmr8K8z5oB9LF/jZ32Z6f4MTDpe4UnTwbTzhs3RdMeDkWnxcHbP7+BPvhbbUxP+FfVPv8a2307gnunD7XtumsMcGpfNMOugsJQ7z3t1TFl61/fjMIL4YAmNZXqvNVF2050VoL2VI6P93Gz1WTyx5atPvd/m5pGWMuDiewfBa7lAqfDM3oPcELiVwU6VXut5kkm+wzNruemsTA3czwfRLrqiHxCtCqiH2RO80dJGF1NZtbSFQH78Po9EHDwQjQ24e1fzhhkR3s9yw/hFJdzf0kZXRxsfzCqJPXQNOQdpwfCircTayJ2UIAsh9Ew3k2W3jH+MRotzuipRn9A0NMbwzdVzKF49h8BzE+n6j6OgHeW9HTdxe2GWPTmiGXt1OvhauY8bVAQ4fOwIRtwyTC/3j+drvz/NObN9e6bFfuz/8kxl6soNZqYmsB3uNyJWG13sPvAgTxv9aXwet5kZmWzumQ2Rgyqa31dP4I73+f6Pv8sY9Gh/zF8uZOcvKtj5ywr+nt281qWpfRKNymlaD4v1jPK+FVbnZ2DSVVtC/mJYvzI+XNGzdEYw61xuiaFh7KE5w+HDE/EXWPbU5H+X0pceovSP29m2spWzlj03R/5L4xvTs9S53pJ1T47z3O3oLE9Vetf3XShapdsg0GhbibDaTb/vE3T9ajjjvzXUrgcNhk37c/IX3c2o6FtEfnveUn6e08fHcMsEa/0TdBnO0Y3GvGRv75rOk0zyHZ6WNtMI+4JvcJs3m2zvbXjLjQyPJauijLeeJ+M3DrqQO8lrWUMOEzYH5Qe0GYMv1Mgb/jyyx+dxW0OjZXlLycnFz1Z2JxiswrWxb/1qokam5qk3iFYFeu3QGrilzk2M4M8IFj4+wVngs6b3OaKyPrteeJ+z777NrleP6nt1fjeewIvf4Y8s199wy0iO/O6oft7SwUe3jiDLrX1rsPkllWcu+jKnnlUF/z0urkbHblom3WNxQqzjt4vd28GX68HT9SsW7vkGwV+W8h3XbMBJOlqJRf1mMJRNnh84/AqrGqKsvjef/PwAqyNv8ER3mcZMJLScJ1lvyXonoou2Fv1Vtvc23ggqLXXsZqu/hLHoevZ8cphPx2Wr/XRGxkX9v2AC2dZzjtDJBMaY5zdyE4f46BP9/OP/OsnEbw231Lf+59K+eZ6quPV9+7NpX/ADHnQbE6gA3njtsJsHDxffO8jJ4wc5sPEtWrYc4sL+sLlx2dDLcO8f2c45dYzPRt/MYFNv5zn2k48ZtejuWNbIWr+PzpNJ8h0etvKk2h/zBBv0SL9oFcsPGBkeI6MT20cT2G5EcFMp8Sfew5Ndth7/GmNPjv3bFVsXK/lTsGHlVL1DvQxPGHt11vgJrpyqp7PXPcjWe5Vc9uv0KdaNpuGX78dbHoxPvZrsY7lha8t+q8D2B1mf6BoNtGMR3lqmvqVVC99+ZAw3FN6jZ3xWz6H4uW8w7Pa7KH5kDJ+9f4gz775tfhsr+GJEz+T4v8O3UfJ/0duwZVaM5EpcBqb/yzMWi81XTVqvMsOWPqHS/XitfcE6fgNsnb2eB7M1Pgr9lo4dr6pvY/2ImfN+yRE0fvW8fh6442WC98/lgWw9m7h+0irzvZ9gOY/9mSXDGA6yzHc/G4yNuQOEfUE9QDH0kr9in+0ba7E9l7reHxuvz+0bUAHOvS0sXzlVdVmNs+9FYYyRcdXQ+IhfP/0Ttj39Gtuefo9Rj09imBHvN7dzctwIVQ8gi7zHJ3Lof+v13x/35+R9VbOUGxmcns5TFNe+b382GfKu2hK1hGj9JmssG+m0W3jvCQZ/69vmJuT8ebkMmZxP/rSboL019k0slQEyuHjwKIyKnXPqGCeO/4F289tbv+HYqVhxOpA2v7TcVVti/0bPrA2WjI6VLl6Z/RJ52wfW5DRQMX9p2aOcgQFwlF9a7h63X1ru7ii/tJxcnmhc7K74L+Eov7Sc2sgvLSus68X25SthQOPMhAyAo9AD5n4NdezpXEgqGt3sqenv8wFIT/ed6uV9SdpkeARBEARBGBgM6AyPIAiCIAjC1SIOjyAIgiAIGU+3Ds+gQYOcIuEaGDRokOhUSFmkf6YGYofUROzSfyRLz+Lw9CMyYIRURvpnaiB2SE3ELv1HsvTc7aZlgMuXL3Pp0iUuXbrkLBJ6iTFQrrtO9y9Fp0IqIf0zNRA7pCZil/7Dqeu+pkeHRxAEQRAEId1JjhslCIIgCIKQQojDIwiCIAhCxiMOjyAIgiAIGY84PIIgCIIgZDzi8AiCIAiCkPHIt7SEtOaLL/aCBl8ZNM1ZJAhCCnDuwhvmnyvPGnK/s1joY7QTP7Gde2562HY+kJEMj5DeDOC/giwI6YA+OmWU9hfGX4bXcxmidSvi8AjpjceDB49TKghCiqCPThml/YVHzYkej8fUvqDTBw5PJ9UzlxByigUhEXuWULyp0ymF9mqKvV68Xi/emdWYNSzy2HWdVM/0Msn3KL5Jj9rb27NEb8PrZckeVXtTcZzMaMOQu34mIemEyg0bFFPd7ixNUG6xsdcbm39c6xJiiVu/strfkCfqgwOMzk3FlnFiJZEuVVmcDDTtfZZ9/b/zLx1KkMB2rvawjdEB9JxxzpHWflkerwXr/Jb30B46NA1N+4Tqh35gys323PRvbV/90+1vsbd17nRrIx3QrpkObXPgGW2vU2yyV3smsFnrcIqvhkObtRk/TPxOXy59eJ8ZS4e2OZCr5ebmajM2dq+pjo0ztGd266/3/nCGtvmQpq63vP7hZu3gpZ9plz7/WezCQ5u1GXF26NA2bzT6jdVOehvdfxIhqVjH9O5ntFzn+E5UvvsZs3+YJKy7WfUZZ7/KjW/DgrXuwGGv9kyuPkZd7z2BLjs2ztByc3O13Lixp2mtL8/Svj/jT7SX9/9UF7jZLpE9dj9jzhUdG2f0OG+kP+5zpPscGKNj4zOm7PLxOvVvvbbpbxbF2SOR/mNY58i92jPOMan1po3U5CozPFZPvIpmQxwXHXVSPbOMhv2VFKqIy+qJmh6nWwRv8SB1WYgl0yqJbCtL6FGGyoup3mRcZ43w3KIEPTO1pDwWTcRFh25edXs1xeXVZnv6Z4u/T8GNHBbsjBLdPMtZEEdbKxT4nFIAP74JAG00h40l6tg6dWewGX9+HYW2PpDDgoVFsSZMVBvCl0ZnsA7/fco208upCNfbxnai8s62FkstnUR1mb6ABRMclQlRzyx43DG+LSTug5lMEWujUZqeS3DjrrqEnIW7iEZriRvZ7dU8uf9Olvtjo9TNdonsEXqzhbmBHAByFlbgfz0Yl0HKLNzmyBD14bkEJqjyZX7qgnYttLXGdBrbw3OE8Ie2apBQ/zE6N9VTsHEBOQDtEdxq99RGqnJVDk/npvnUPdBENBolurGAlv2qYMICdkWjRKNRavPrCLbnsGBnLbMmV9AU3cWCCcbAiBKN1pqdtzNYh3+zft2uhTm6c7O6gCbVVkVrFSGKWLu3At+cWqLRtbg9viBCZWup3v7eudQt0h2Zzk3zaV6mtxXdW0C9mSpsgPuiRHcugE3FVE5R9xTdxYIJnVQvaqZCfYamKfUxR2ZbHWxU9/BCFSHi71O4Ogyns/6+mB6LqmpgkRevt5DmZRbb76/k+5P/G5MmLTdt09baQMuUGt2Om/1UvmR/kIXKK2ODGb0Nu3MkpAsN3TgrrrRXM7+1grXT1US+DUqjUaLRJirClab93fqg4MCqy4Toc+jyf/gGOHaTxNmuG3sIvSFC5TRdpzP/9bjawwO0bXOd3+L0bxKi6vUC5VwptpU5kgU6idtIXa7K4WlrxfS6mRBg7mSjJLbeV7YtQnPEcpGBmbkpo2F/M21AzsIaClZbFNoeocV8EHkp29ZCpFed30fF0+pxOCHAXPT221ojMeNMq6ShtU3Vn0WpGrC2e9IlNO9voEx9hsIXGmL3M6dCTYR5FJj3LvQFRVW6g1n6piWz552vHExdrq8j65Hogf3/xv7dRdQpxyZvig9/nrLj9FJmhSMqItT7pv0hprdhOsgO50hIXWKBU5Raen44dm4qxrsIaqqM+cGHf3IBeQDkEHgAc3zH90HBSpwuE6AHmmu5W9OzO8YPoLjarht7ZDKxFY9rC7iMPhuNNvFwYyMhTUPT/Pzjf62Lm99c9W+wpx6WWQJCSxIjuhkq1Xjoto0U5qocnrwpxFJq7UHqVIYnVF6vPPQotXNslyhCLHlTZWBs6U+VxouWUj+zms4JPvyTK8wMj55xsTWUAIuT1R6kDn0A5U3xMUtlkKLRKFGXgWq7J11CweRZ1JqfIdpDNCP0JUX3WVK6k410rm5LGx4PnrZDGGbPyfPT8KZyXPbU05DvI4dOqmfqfTOhDSPNZhtC/2GzV3uQuvxSW/a2p3LoJKKWJRPW3bOE+dQQ3WmZyMmjgDqC7Xobwdfjl69sfVDQcdWlGyGqXtADzYLb5vPk9sO8GPgfjgdjzHaJ7GGbl/fU0/JAoIf3TS9ijkN3zzirbuzLfPG0EW5T86L1G6yu85tV/zqhNzGTAE7cl7Hi20hpnJt6ekdsY1tu4BntGbVp2dy4lpurzQjYNwfm5s7QNh+KbcjKzZ2hzXC5ztwItfsZUxbbCGdc775Jeu8PZ2gzLO3HNnZZ39d4D+dma/tn23xIbYI0PoPxnraN0/Y2YvdpNiq4YdmIqPclpTNXmyeQG7aZOFabOPEBW3/Q7eCwmWnHHuwr9Dtx9lIyo48kKjfsad/c2X3d3Nzc2GZmi/3NNtz62gDEvmE7NkYT6tKo56KzM+d/qu185k+0f1KblhPZztUe1nnZpe2MxTZHuuumY+MMpX/78+3pbf+ufXH837UvfrtImzHhFiV3Hw/2TeAu9kswHhK3kdqk7S8th8q9lG2Lnfuea6KidT6Rp7vzlIVMQ35pWRBSG/ml5f5Ffmk5MVe1pJUKxNYs9X/6ZmdhwCG/tCwIKY2m6b+zLKO0f9A0/VeWjW9rCTHSNsMjCIIgCILQW9I2wyMIgiAIgtBbxOERBEEQBCHjEYdHEARBEISMRxweQRAEQRAyHnF4BEEQBEHIeHr8ltbFyxqnP4fzX8gX3K4GDzD0Kx5GXA+Dr9N/9VJ0KqQK0j9TA7FDaiJ26T/cdN3XdOvwXLys8YfzYtS+wAP80VDdiKJTIdWQ/pkaiB1SE7FL/2HoOhlOT7cOz7ELGp99kbBYuEJu+IpuQNGpkIpI/0wNxA6pidil/7jhKx5uHtLPDs/vz10WT7YPMcwnOhVSEemfqYHYITURu/QfHuDWrL7fYtxti2LYvkUTnQopjPTP1EDskJqIXfqPZOm5W4dHEARBEAQhExCHR0hrsm942ykSBCGFyB7yllMkCF8K4vAI6U2ycp+CIPQJMkSFVEEcHiG98fT9Tn5BEPoOGaFCqiAOj5DeJP6SoSAIKYCMUCFVSBOHp5MtswNs6XDKE/POiiurL/QP76zwcVe+j7vyXezTUcOj+ap8dg2H467x8XwoVv2dFT68vrmOtpp43qUNQkvj20jwfkL/0m2fSFRutd2KJvsFoaU8Wttpl2Fcs5R3jHO3PkEnW2bH+ptrOxmN9f4tunJwuDZgG4vuutRtlzfpEXtbFtvZ9Wt5b8d4jHu/AUTCe0+gx8O1AVdbQPwYSFQ3NuacfaCTLbOdsvQhTRyeHOZtDzJvvFMupBUdNayjhrfDEd5+2c+69Y4H1fj5/Dgc4e1whNdm17FJDcA7V+qyt8M1sEZNhKqtaKTO3lYowpQdzjY62bIGqow2nlIDNsH7Cf1IT30iQfk76+so2RHh7fBeFrdUKkdIPTCfarS3oXhnfR34jLMEfQLAv4LXVL/4cVmOef2AIPSPNM7eq4+J8hbWxTl8ekDxUFWbXbamQOnMosvQUtZN2kvbgVd5+2UoV46p1XYl2xeYTuw7K6bRulSN9e3zGZfw/QYK3d+7ux47aaIifr60XGMdA651bWMuZjfdqZ3GukisvXQj+Q5PRw2PrqgxPfdEEVMsI2PN5sS8SXv5UrYYnqlrJmApQWvjlujD9FgtUeDh2oDt9fOhxBGLcPUc3l3H5EChflL0Qxa31CeMFNoPwBSvQ9gRYb/fxzhrWx6Pva2i+T07xr4CJjhEru8nJJ2e+oR7eRPBlrkUjkcPhpb6adzdqQKjCG+/XGJpQRFayrpJFbiU6Jh9Ikpri7Nw4PBOsIWSe3Qnb1xZBZO373JkPgt5PhzhtfK8mMgyLqGQwKwWDnXA4WgLk705+h6eolKKWyIuWVQ/E8cDNBGkBJ5S87SZtXN5vwHDldy7occc5pWp8eIkbgx0U9fCxElqYixaowcYpsOUfiTf4QFoqIN1uhc5ueofXR9yEyZBaxTo2EWr30/r7k598vGXcqezMo00Us3b4QhV/pV6ZB5aSrnhlYZLocGo28TzTxmRnMVj9RbAgaju5R7wM/mAPrDbD/gJFOkDf7HKFDxfZH93IXkYTmswYMnoGanbxfDiSscATbSHp6OGZw9UKNvlMG97KcF8H3flVzJlnRE9Jng/IcPQMxAvllk92sR9gshKHsr3JVxiE1wwnZkmgubcC/ujnfoenlA9u5TszpXVsNjHXfnTaF26Rp/fOyLsb4BA2Jm1ExLhqkcL76yw9mu3MRDDVnf8fH4cqNcdzzUFvJhBWc7+cXhmVaiHiZcpCbzDcffMZX+wicO7m5nyZCls38XhUD0Y0Z2NEhYrI0yYpHu/h6MtFJt1CwnMUi87IuyfZXGajEhjfDElLfW807GL1kk/JEAdTR1NBNHr3rmygtZ749eSheRiLF8FgpZsoLH0tA6eda4pu3wF5HBtwO4cddTwaH69mkyrYXHsQeb6fkJGYZ/4FQn7hB5Vvx2O8PaOuTQ6l9iEeMbP58XZdcpJrGS/T882jCurpmT7NH0Pz5oWJvp9jKOJ5/MXqABYH3fPh4DxPiabWbYcCmerAHjAkHj/kjsJ9GiW2YM41zEArnUP1wa4K1iqj4F18GyvPk960D8OT29QDsgmCigcX0jA38ymIAR6mV0Z5/WzK2hMTpYoY7yPyQ2WNHmonl1+H+PIoXB2C8H1MOWeHO4M+Gldb3Ww1MS3Dp51booUrgqbjTp20eiavdO5M+Cy+DC+mBLlMJttaY62Qkt5lmrLHgCF6fTmMNFvLdBxfT8h6fTUJ9zLvUyhjiZj74dlGSaOjhrWNbSx7l49El4XaaTccJp76BNEmznklGU4Eyahlgf1uXL/7GKXh2Q848qCppOIaUN9ibHtwKu8NpvY0qTPWI6MBazYbNpJ0/aBtsSslmNt+5d6wFWPnWyZrTvy5spEwjHgUldhJg/G+5hsL0prUsfhUQ7IrgP6WvCdAdjVEr/XIiFFP2Rxy3y176YejAwPhTz/MpQbe3jWFPCaivzH3TOX/Q3N+tpnUSk0tJiDzNwPdG8dJU+6ZZmEK6ZoDVUoG93bzOKVhSrCUNG1da+VmUq1fmvEkrpVbXl9cy1twTvBRg5VTYu1s6JJj0AnVZqyclTG0fX9hH7FtU/o4+/R2s4E5TnMWzeXxnt1262bVJ14OdKyMV3ff1BCVXgNdybqE9Zvfz0FVc4l1AzHyMrYx4RljLpiGaMWGxq6zJv0CA+Zy8uFPL+0WWWDfDy0fS4LjWVn06bTaJzdjU0HMua3rBLosWMXjZHG2PMuP8AWEowBt7odeh+YssaQzYelvXTA0oBu/1p617nLTlHf0FHDo/eutERPygC2SoLQM9lD36br/F1OsSAIKcKtQ97i9xfudooFoVuyk/DX0r8ch0cQ+ogbB3Vy6pJkZgQhVRnxlQ5OfyHpGuHKEIdHEARBEISMJxkOT9+3KAiCIAiCkGJ06/C4fONXuAY8olMhhZH+mRqIHVITsUv/kSw9d+vwDP1Kst52YDL0Kx7RqZCySP9MDcQOqYnYpf9Ilp67dXhGXJ88T2ug4VH6FJ0KqYj0z9RA7JCaiF36D0PXyaDbTcsAFy9rnP4czn+h6T8RLlwRHuWtjrgeBl+nDxXRqZAqSP9MDcQOqYnYpf9w03Vf06PDIwiCIAiCkO50u6QlCIIgCIKQCYjDIwiCIAhCxvP/ATMiun1FXMpqAAAAAElFTkSuQmCC;" vertex="1" parent="1">
          <mxGeometry x="1480" y="60" width="572" height="109" as="geometry" />
        </mxCell>
        <mxCell id="hQbRVMWu5Df9wvZDzti9-3" value="" style="shape=image;verticalLabelPosition=bottom;labelBackgroundColor=default;verticalAlign=top;aspect=fixed;imageAspect=0;image=data:image/png,iVBORw0KGgoAAAANSUhEUgAAAdsAAADXCAYAAABSz/v7AAAAAXNSR0IArs4c6QAAAARnQU1BAACxjwv8YQUAAAAJcEhZcwAADsMAAA7DAcdvqGQAADuPSURBVHhe7d19cBRnnif475w7ggkuQo59wdE9S8GqVICp0vRgejwaKRokBqSSMSWg0em6W2cvLgRG7ReVqUMWul5z9LrLHFgNgWFkIaFjzHDT1oJBpQNTjDQqVl40vh7LN72q4oBSGakqwh1obzpQ7HAmwo7n/sjMypfKrCqBCiT8/UQoQnoy66nM53ny+T1PZirzD4QQAkRERJQ3/50xgYiIiGYWgy0REVGeMdgSERHlGYMtERFRnjHYEhER5RmDLRERUZ4x2BIREeUZgy0REVGeMdgSERHlGYMtERFRnjHYEhER5RmDLRERUZ4x2BIREeXZtzfYjnehym6HXfmp7kLCuE42Az7Y7T6Ejel5l0BXda7bLq+bcR0z0ueqjsufksvLN6Ausyt/D/jUbbHb77NMwvCl8jcznX1+iAz7br39QOJ4Fez2KnSNG5dkYWhnYb9m/5Xvr+5CwlhGdk395cxQ7ybCfv132P3Tr+0HlThe9QjbQHo5z0wZSMdAprLPnXEb76Pd5ShrXQz48vr91rL1KQ/XtzfYymo644jH44hfaoDNuDCLxFjUmPRQJI5vQ+CGA62D97/t2Y1h9IYxTSJ9v1R2h9cqqcr2dKMGQQSm22GMx5CpNB/OPk9XGL7tQWBzt7RNcW15zBzrdiZ//9JWXNGWh7w9V1ociO1vm+bAx7redZa24ko8jnhnDXDO+9A7tLHrMWPSw6cpZ5wLPIJgkoNU27yMhsXGhTNjVtSFmSx9ysP2rQ+2aXQzXnk2YZgFK7O58v0xAEF45VGbNOKXPyPPONJnftJy7ezg/kayMfSE0j+XNV+z/Uv73KfoqvYiCCC2v1w/ah/rwrb9MWBzt3lgkRu4s0ju+k2/Tz/q9g2E4VsTQAxAcLvFdgPT2mfd7Cs16pZGuur3Wm3fNJ07n/45bZ2bjvqNZSAnG7fHpJ0pQn4vgnCgtcN84DF2PQYsLUaR/He2cspY7xk5UOww2XbAvMzNysYkTTkTUJUqJynPxPEqeM8BuBFAud2HsHEWl9pu/Xenvt/i+x6ME47FxjJQv89qX/TtQCr7FF2/oda9WV6+VD1ma8MWZZVrH2Uot0/T6iIL+fNV1VWp/fL51d+lfVTOxlWpZalpi7kd2yZ9iml5Zvous2PULC1H4tvqVqeoLCwUhcrPrkEhxKBoSv0+ITrdyu+qwV2FotDdKSaEEBMdlaKwsEkoawzuKlT/7m8ShYWFoqlf/b2yY0KI1OcqRectZZn8e87kbZO3PXO+8rruTjFhsX+6z6VI6yp568tL3Wch1P1L/cjlY1meZvss59/Ur0nTyWGflTV1adptkH/Ptn3Todt3uVzkfZG2US1H7XZp24rajrTbozJvZ/pykNfUlVGq/RnLRCn//2xW5oZ6N6H9fnUbrMrSUOa6spFlLC/9MaRsq/Y41NG0Lcvj0eL7cmcoZ7PtMO0r0vdFVy/a7TKUU3p70X4+Pd+0bZQ/qysT7Xfk1EeZHyOWdaHQHu/a79H+rttfZdu1dSd9PvdjO1Ofot0P/Xdpy0dXVrL0ejD0hRl862e2qdPIbRXqaYdzXtjt5QjcABCJIaEZEUmjuFGMGTPKgTLbk067xBBYY4d9exBADKPTOhNjQ8OlOOLxK2hdCsT2b0PXeA75Wuzf8PWYOjLPoqZTOk3sTZsNKKd4r6AVAZRXdyFh8X2JtZtQo2xnztdyMu2zftv1aUUoXqrJBgBcDmkmaLV9htUzWntYaj+dNdLs0x8GYqOIKbNDebYSu65tMQnEIpBnq3Z55hpF7Kq0PY5lylw0g6Wt6G5xILa/PH10rZw67KxBcLs0+jZtG/+fG3VLpZH/tEfpymnkeByXd9iyl6VS5nLZpM58aNLMy0ueNTuK4VA/YaCZ1aTavVzGysxe+/mM3zcNm7sRH2yF40YA20xmful9Rfq+6NrqYgecyqqGcipaZtx7KS9bkdM035TUaeTDqFDanVIm2u+TZe6jbHD/yCHX8YNdp3YW2VLb6yyymW4LNm9CReoPqS/L+dg2IZ0RsJu3T7lM1HI2lJU2zXjc5tR/8TSynlLhmmtw8UsNGLsoXxeLx9G92fghtbDTDwhz0nqa64/3fa1PbvyyrPla7F/pModlo0nvhCpwuLMG0HYwViy+z4YKHI7H5eu7+lPD0bEseZrus37b9WnSNUjTAGa5ffdh7SbUKL/LnYij5Yqab5vabQA2OFwAUINuZXn8MhrKpO1JL3Ok7SMAFO04gdalQHB79tN35m1DP4AJXlRzMd+GDHItS7lsdPWctbwsKIFs4Lx0On1QGfRALWNlHTl4AQ/wfWYWN6B1szr4C2fsK9Lp2qr2GqOhnIyXBO6PoUyMl3w0zNsLYNtxGfHUdWrN5ZP7nIBkJAdD6Z4FaUCR87GtIZVhAqGPpMtfSnvPzFBW2jTjcZvDJAUMtkZyIFFGbvJov2K9FFzKldGqzOaugwMxBNZIszPpb2nUI40Gzdl2nEDrUmVmN/1rRuoITRpdOVpOoGFxLvma759tx2V0b1Y/J12fqcCmzfJMxTiCXXsY3ZulmYF6fVX5fLl0I1OHHFRNvk8d/XsRRA1ad9iAxdIsS5+nynqf07ddn+ZFcGkrTuxI71CsyiN32utE0r50t1UAixtwQp51SsvSZ+8VbfIZAuXz/rC0PYOtcKS2RwqixnamsqGho1Vuc5qAq3xevnlL6iRN2kbq+qJcZ69XZK73jHIsy8UNuNxZo5ZNdRcSOZSXUcV6+UyC3Yew9kyJ5rireF0pGzvsB6PqrO8+vi8TqS5jCLzchSKLvsKKbUeruu0v96gLDOXkPWd9bX46KtquoHWpXCZrAohZ3Hth2l401yulY9CPCmNdGDN6EHI5Wh/vmY5tGPoUaGbl8sw2C11ZKbHA9LjNzR8IIYQxkYjocZI4XoXy/UDrYO4zEXpUEuiqLkcAhrvs5zjObGn2Mf4P9EyPmClnxv+pNTvrMGtprp+W74+hppOBNt/mdHvJM85siYiI8owzWyIiojxjsCUiIsozBlsiIqI8Y7AlIiLKMwZbIiKiPNPdjfx3f/d3+qVEREQ0bX/xF3+h+5v/+kNERJRnPI1MRESUZwy2REREecZgS0RElGcMtkRERHnGYEtERJRnDLZERER5xmBLRESUZwy2REREeZZTsNW+ENg3YFz6EA347u9lxONdqPLz9eP5kjheZdo+1HajvPw9DJ/upfBmL5dOoKtaXl7dBd1SQ/1btUvt9qh56L9b344T6KrmC+pnhkX9aV7knl7nijB8ujrPnpfatuTj3Ow7NOv7BvTrmbcHehTMj1uT+tMwvqxe/Zx520nvkzKkm7anTP1IFiKLiY5KUVhYKTpvKb83iUHjSg9Lf5Oo7JgwpmZ3q1NU7npkW53R4C6pbOeuCdHZoZTtoGhyd4oJYSjz/iZRmFb+E6LTnd6WBncViqZ+Q6KYEJ3uQlFYWGhR/5rvFUJMdDSZlOmgaErbBnnbCgsfbbt+nGiO0YmOSvl3bV0PiiaTspb6lkJRqKlH87yk9PQ2Yp6vuNUpKrV5ptG3HXp0TI/brPWnmuioTLUL037Eok/Sta0Ui/Zk1Y/kIOvMdux6DFhaB/diwFbkBBBFbNy4VibSrMEnjxx8A5pRRGq2qR0tKCML85GJmqc62lBHJVXoUrZNOyo5Mqr7tM6AD1XHu1Lfbz5zUvMN+6vg81eltjN9VqfZbt2++NClrCvvT+J4FbznYgisyTTan+1saNhRYUxM41hWpE8YaMPo7sPQfzKM86gBthvbhw0Nl+KId9bo1k4ZjyHqcsAm/zl2PWpYQV7HmAYAaw8jHr+C1qXGBTQTnEU2YDyEHtcmua4r4G+J4rxhRmDbcRnxeDcsahhQ8gKQGDOpyYHzwGbAa5hxJEKjcLp6UG7sH2SJ4+dR3NGQajv06Jgdt9nqTxVG2/VWHF4r/W7ej+hJfVICoetOOD8q18cai/Zk2Y/kIEuwTSAWMabFMBozpmUTBNbHEY93A9vtOL8+LnVwkfNyMKrA4Xgc8XgcV5QDcTyEHlc34vE44pe0B8MYuqq3AR1xXN5hAwZ8CCy7Iq0Xb8XokbAU3F7uQd2glOeJZVFk2uTY/lFsikvbVPfRNqlCTfMFgBiiy04gHj+MigEfyq+3yuvEcXgtkDi+DaO7pb/jg8U4nwqiQfTgBOLxOLpdAbQNSB1M92YHWgflfZnjwv6A2nEtbsDl9eelBnywGCd0+5dA10Fg01pNEuSGfA6pumiNBDIcXJoB1cvAiTZt2JYGMMbBE855DYMgmnFrD+MEtsFut6M81fndpwx5BQ0daWIsiiA2ycddK6IHpU5z7HpQPl7jiHc6EUgdx5A66I+K4V6sSaJHKP24zVx/qsTxALBe7gOs+hHTPmkMo+eiKO6Q+mylb7ZqT8D99yNZgq0NDpcxzYFihzEtmxq5Yy1C8VLldxscLmWWrM4Gy/fHEB1LAIsbcGJZQD+qABDb78Xo7stokA+QxFgUsf3yqMTuRTASQwJjGIU0GwcAm7sOmTbZ0eKXR902uH8EjMas8gUAB+rc6gi7Rqlg2dj1mNoRrAkgeH1MXlKDVjngFC3LtDVzkXRm4vx6Tb0cr4L9otxYO4Bt2rMT4yGM/kgpc43FDjiXFkOaA6t1YWlxAy4r+WsafkWbPNiJX0HdR21SurJuPI54JxCYs2cSZrew345t8qAyvv685awiF1Z5SbNguXOE1JHaipzq2ZPFbtRhFGPysabMiLF2E2pSx7E8e9nNWe1sYXbcZqy/lARC1+vgVwZjFv2IeZ9UhOKlTjjkfqtifQ2iYwnL9vQg/UiWYCsHhhvSF0mnb9QNmymJ422APLK40qIGIuWg2nRRPX3gaLmCTRfVAGwrcsLRosxAlVlwEYrRg5D8mUSoJ/PMNhUQEwh9BBQ7rPLVsxU5Ebyo70yKljlQ06k0mjjiuhnX4yiBrurz2CTP7LVSA5HFDjg16YnQKIrlAYuett7UushqsRt1pqeBxzB6w5hmcRqSZog6GIWjWBrkLnbAeU45i5VA6CNn+lkNUyZ56WjOvDmKgY9CUkc8HkIPpM5Wd4wOnEdQc7khfNHk7ArNAupxm6n+UsZDGF3m1qRb9yPpfZINDlcwdVkjfDEoBXeL9qQ17X7EeBE3nXpzinKj1PRob47Q3xSTujkodZNKoah0yxerb3WKSjktdXNN6oYJeZvk9MFdyvZpbqDR5rmryfoGqf4mUemWb84w3IBjlq/xhibtOtIFeW15adPU/dZeyFe2M/0C/RyhrSddGzErByVdf+PBREelWsea/NLKRHeDXKb8TdI17UF3E07qM2Y3Q9D0DYqmtLagL3+lTnT1rnxWVzfmeZkdl0LJz/i9uvW1dWz8Lnq0LI5b0/obFE2aOtb1pwrTfsTqOzTtTNMeTdtTxn4ks2/V+2wTx6tQvl8zx93cjfj686ga8z8W10yJiGh2+lYFW1MDPgZbIiLKKwZbIiKiPMt6gxQRERE9GAZbIiKiPGOwJSIiyjMGWyIiojxjsCUiIsoz3d3Id+/e1S8lIiKiaZs/f77ub85siYiI8ozBloiIKM8YbImIiPKMwZaIiCjPGGyJiIjyjMGWiIgozxhsiYiI8ozBloiIKM9yDLZJnNzogsvVjCHjokdoaI8HJyeMqXNAuBme7qQx9bGS7PbA5XJpfuS2M3ESHiVtj0lrCjenPtMcVpOH9hjyMayrpitt1QWXS9s+htCsrLvxJIyln+z2mG8P3Zdkt0dXf1b1ChjahHEds89p0tTjSFvvFukm9T60R7suzQZmdZLWnlI0x3Va2xpCs67OrdqIvFTXB2jXNcQ9szaZg+zBduIkPC43DsaMC+Y+6wqkB7XQ24dIJCL9HHsedv/rWAVgqP0stnwcQSQSwu7oAcNgKYmTh4D3IxFEIu8Dr6gB+gDel/MCdmqC4vPH5O+IHMAqAMBCbO2V0z7egrPt8rrhMTg/ltJDG8/iiOGgPNIL2LVJdJ+kzs/dFtenHXIiZKxXxaKt6FPaSuR9PO/Yjdcr5L4n9bkIDlTIucWVtBC29B5R83LuTq3b510opYWP4OzGUKreG7Ud7MRJ9EVZ67NKWp2YtSeDGrlv0LQRabC/ExeM65q1ESC9D5joB95Q+i/ggNJuLNpkLrIHW/lAeL/GuGCW6FdGGdpZjMmoRDN69nQngXAz3G1xXHjFYoYFixF0uBme7pOp0ZTpCNowatLO8tTg3p/K4/EO+EmcDDnR7l0IYAh90S1YtwhSUHxjOc72Z5hVOJwoNKYBsC+RUpPxa8ZFevEoIK+Liq3Yusi4gmRozwE439hiTKb7sgoHIhGE/JoOc2IM15xFkLq2VfDUXMOYxRmpZHcfnO9txUIAyf4oljvPwm04vld5peV6XyAaNaalW25XPpnEydei8Lyx3LAGPTpmdWLSnrQmxmDWC0iD/ffxvC7Vuo2k9QGLtmKrSSC1apO5yB5sZ7U4Dt70qLOY16RTBsnuRkSVUcnHTvR1J5HsP4vl8iyoz7sQqDiAkN8uzYzekeZEetrReATNN9URdLwtCk9qZN2IkxPSdyojaG06ws1w32xOG3ml8vh4N64dSj+99dgIH8HZJetMOkczC7G114M+lwsu14FUp4tFW9Hn7pMGLIeUwC258Io8wNEOmJRBUshjGL1Kg67Gm83qiDTcjANL2rHV4limGRIdk9v4EPqCxoWKIRzpdcqDMeCLmxdwbUm7PLtYjoPKWQqZdJwrZzQAxA6md4IVB9CORrhcLrg19Z72WXrk7rtOgjv1E6tMzNpIxj5AigNKn5OtTWYyx4OtHbsb5apZtA5bEMUXAL64Kc9YXS64njuICze/wEJvO5yHcqwQyCOmVMW4sDOojsaVU6LAQqzbCETjwBc3gS3rlI5dTU/Gr+F5d3rzSeWxqAiP89h6KAQ0GwOelYmT8Lj65IFMO/CadEAkuz1wheRB1XtAo3wdRnuq+n1oTklXHJDS3X2663TJbg9crwHtqcGV/kCiPFm0Fe0bldnAAVxzLEeR2VmGcB/whjprLVxiV2eiFR48nwrY0lmkRrRrTuNJM6DUwFvuBIf2SOul2sOeofQBFz1691sn2ksQ2tO9pszaSIY+INwMl6sPnt5c2mR2czzYxhFVTuVP9OMspNOOhUvkGatSsO+s0lzL86DP5EaJNIuKsNyhnt+PRPpSpyHjN7+QV0qivxdw2oHCJdCcElXTF9qX40Iop/D+GBpCHzyakWohnDiLfjkoDoWuaQYoshpl/YUocqrJqQGL6eAkiTGz00MVHvU0UrhZ6nQ1B06y+wAuKAOq5w4iHtxpfUmBHkhqYPTxFsCpbROqoRDg0XS2umMn3IcL8qnooT2NwHvGa24a8SjUK3x2tY3ZnbADGGqX69rlguuVC4i3udNulqGHaybqJOtlJS25jVj2ARMn4Ql5NPeCSKzaZC7meLC149ohZQZ7Flvk047qLFa9JqpeN92ZGj0vXLcF1yyv2a7CgTeiqZmtdoZkjx6Q83Lj7MZ2bF0kfeeWXncqPfqGHJwrDuB9KKc5HvfrswbhPlxTrpkC0oDnvS04+5xUFgeWSGWXugtw0Va0L1HK1oWdaE6VrVqfav2pdyir9aC/O1E9FT0Ukg5gJW/XniH9TVwf74a95n2LSwr0YDT3MzwXRbNcxvq7P4fQFzVco9ceO68A77+zSlovGMdBuQ2ljintHc2pdYFV7zQjqqz73FlsaVyFVe9oBuLHnofdH7IO3PRQTK9OhtCsnAbW3Ffj7t1iPkNVmLQRqz4g2X9WDf4uTf9v2iZzw/fZAnLlae9cs2P3x+pMVifcDE/89QwNgYiIvu2M77NlsJ0uBlsiIsqCwZaIiCjPjMF2jl+zJSIimv0YbImIiPKMwZaIiCjPGGyJiIjyjMGWiIgoz3R3IxMREdHM48yWiIgozxhsiYiI8ozBloiIKM8YbImIiPKMwZaIiCjPGGyJiIjyjMGWiIgozxhsiYiI8ozBloiIKM+yB9vxLlTZ7bDLP74B4wr3J+yvQte4MZUee9r25A8bl8oS6Kr2Qbs07FfaoCbdIq/E8SqT9ppAV7W8bnUXEgCAMHyatm2321F1XFpCM8yirlIGfCZ1oK+fVF2a5qWpX20bgT5vKQ/tuuyH5oLE8Srz2KOpW127SqtzGOpdf6yn9y9W7cmiTeZCZNPfKTpvCSHEhOh0F4pCd6eYMK5zHwZ3Vcr5msu2PHeDommGtjkfZm4/5wZ1fydEp9tk3/ubRGFhoSgsbBKDStqtTlG5S/6rv0kUyr+b5zUhOjuUT2rqvr9JVHZIrWCiozL1u2pCdLo130kzyryuFNqyHxRNqbofFE1KvWuY5nWrU3T2yyto6lrc6hSVmY5/bduiWWhQNBUWisLCQtGk1K8Ffbswa08TonNXelsw7Q+s2pNFm8xF9pnt2gY0LAYAGxwu48Lp0Y4ezqupmpGCNIJIHK+C91wMgTXy6EM7kk3NSkxmKmkj3gS6qr0I3gig3GoEO+BD1fGu1DaYj3bUz4b9VfD5q3Tbqh/lmI2IpJlal7KuvL1p+/nYC+N8pA5uuT017HaiJ2TY77WHEY9fQetSfbKWY1lRhrxsaNhRYfxIGmeRTZ8w0IbR3YeR/ZM0fVZ1JRsPoce1SS77Cvhbojg/AGA8hqi6lswir8UNaFhrXBdIhEbhdPWg3HAcp8RGgWVFhkSaPSpwOB7HlRaHcYFBArGIE47FxnQAS4sh1fAYRiPGhQmErjvh/KhcH0ss2pN5m8xN9mArC/vt8J4DanY3wNBN5WbABy+6EY/HEY9vAs4pC6TCjMfjuCIfZLYdl9G92YHWwTgu77ABixtwWV6n29WD0LhygMr5XWqADQl0vTyKViWvZefRNW5Dw6Vu1CxtxZX4ZXnQkC62fxSb4nHE41dQ99E26YAc8CGw7Iq8va0YPaKcSIghuuwE4vHDqBjwofx6q7xOHIfXAonj2zC6W/o7PliM86kgGkQPTsj7EECb2X6SucUNuLz+vHQwHCzGiRzLKuwPoLhDbq9rD+MEtsFut6P8eisO6w6kBLoOApvMDi56tM55DQPXbMLwadrI2PWgfLzGEe90IqAcx8ppxoubeOzNacrkZhvQoQyWbWi4tAnn7XbY7Zo+AABuBAwDrzGMnouiuEOJL1LfrNK3J+B+2qQkh2Ar7Yz3nBQU9J1U7hJjUdSsV+YNFdi0ObUkNRMs3x9DdMxshqfOfr3nYhiNSR3wiWUBzYxyDKM3gvDK65XvD0rr5cDR4k9VkvtHwGhM2t7Yfnm0Y/ciGInJM2oH6txSwev3STJ2PYbgdnlmuyaA4PUxeUkNWuUKK1qWbZRGWonjVbBf3CR1mB3AttTZDStSezm/Xh1ghf12bJMHO/H15/XXd8ZDGP2R0gZo1tAMsuOdQCDb2Z8BH+z289h0Se1ci5Y51LMYazehRjmO1x5W20LW9kSzlw0Nl+KIx08AL8uxYLwLVfbz8gTqBPCyEljViV18sA49R8IAilC8VJ0RV6yvUWOQSXuadpvUyBpsE8e3IXCjBt0ZZoa5sBU5EbyodHBhnJdntonjbYA8qrA6VRD2KwUXR3cqSEszw3g8jk0Xq9A1XoTipTXoVgpCnmnmIpYKiAmEPgKKHdL2OlqUma0ye9bT75OkaJkDNZ3qNsTb2IWrilAM+cwEgPDFaGrgkk1qULPYASeQIa8Euqql9qKvf3WQBEcxtC0tERpFcY7bQffDqq5kix1wnjufuuQS+siZdpYhMaacvLPIa7wLVRc3SWecNJ/THaMD5xF0OfTH8dpNqNH+TXOUDe4faY7qzcplCYvLn7FRSHMxGxyuoHTZAkD4YlAanFm0Jy21TebIeBHXaHCXdHE69ZPpZoOM5Bus5JtfmpSL2akbYgpFpVtzoVpOr+yYEBMdlbp1mvrlGxuUbVIuWGvTNDfYSPtgvClD1t8kKt2a/DUXyrX7rqQbb2jSriNdwNfupzZN3Z6JDnkfhH4/vxU0daS9YSlVh1KK4WYlszI1z0vfBrT1rt5ooW8Lxu+ivDCpK129a/oB47FRWGjod6zy0ta7Zn31GNXeNGPWFmi20vWZYlA0yfWmq3dNH2KabhEfdO1BXteyPVm1yRx8q14enzhehfL9mnPLm7sRX38eVWN+XrchIqK8+VYFW1MDPgZbIiLKKwZbIiKiPMt6gxQRERE9GAZbIiKiPGOwJSIiyjMGWyIiojxjsCUiIsoz3d3Id+/e1S8lIiKiaZs/f77ub85siYiI8ozBloiIKM8YbImIiPKMwZaIiCjPGGyJiIjyjMGWiIgozxhsiYiI8ozBloiIKM+yB9twM1wul/zTjCHj8sdFuBmuPdPYu4mT8ExnfZJMnIRHaU9m5WexfGiP0gY9ODkhJ5q2zSRObjRZF0NoVtbdeBJJY5r84+mWltAMs6jXFE1dqnWgrUtj35PEyY3GNMh1qq13TR6pegeS3R613jXpNNtkagOGPiDVrqz6gOz9iPb4V9fVfK/p9+Ume7CtOIBIJIJI5H08jwvYOc0vmDMqDiDyzipjKs2wofaz2PJxBJFICLujB3QHguXyiZM4gPeldnhsOQ62q23w+WMRuX0egFR7C7G1V077eAvOKuuGx+D8WEoPbTyLI2EAWIUDEeXzIex2PI9m78JU3jRzTOs1JYmTh4D35X5medsRqXMLH8HZjSGpzvzXcEDpCMPNcLncOBjT5iFJdvfhmkOToM1j41k0pjrT5dgtt4dI71aw1mcpqzagSMWnCN6H0q4s+gCLfmQo7kRI7gO29MptT7cu1Lhn+n25yR5sDexLCo1Jj9zQHg9OdisjDpPRDwwzUe0sNtwsjWYMyz3dJ1OznuawJg9lBNQelRNhGEkpoyPtyHsIzantGkLzxpNIWoy4H29D6ItuwbpFkA6IN5bjbL92z82XJ/vPYrlbHghVvI7d0T4MAUjGr2k+ayIeBZT2WrEVWxcZV9AIH0H0DSVg08wyr9eUiX6cdXrksl+F1/3X0BcGhkLXsGWdFAYXepuxvLdfOk4qDsiDIzULQDo+G2960Ow0pGsst0v5fXEzS9uhWcGyDaRJYiy6HEXGY1zTB1j1I6u82Qdb6XHP4vsyyCHYKqfaduKaP4S+WTnyj+PgTY/16AcAFhVheXQMSQBDIeB5KB02UpWpFW+LwhOJIPLxblw7JAfH15TReQTtS64hLq+b7G5Mjb6k0VEjTk4sRJHzGsYmAIT7gBqgLwxgYgzYuA4LJ/px1imPnDiyvm8XXjE5paOc6gl50tvrxEk03mzGgQptojSz8ujSaG5J4uRrUTQbz05VHEA7GuFyueDW1XscB59LP3VIc40yaWkE3tMMljP1ARaS3Y3qgHvRVvS5+6Q8DjnRnsrD4vtykEOwVU61hbCl1z1LZ2F27G6UTyLalxsXylbB4zyL/okh9MGD15dcQ184if6bTnnErWf3vy4XehGkHL9AFMroHFi4bgvs8rpf3NQG7IVYtxGIxoFVbmkEPxQCPI1OXAsNIdkfhXPdQmDRVrQvOaCfOdO0LPT2mZ/SUU71uPvSr9O9BrQbO+SJfkQ3yvVNc5Kuo9QY2uNCI9rV9iAPyla9o14+SJ06pDlIOWXcDrym6Ust+gBzUgBtRHtqMJbs9sAVkiZwkfeAxlQeFt+XgxyC7eNjlXs5zrb3welehYXrtgChI4guWZfjrLIQTpxFv9yhJ/vPpma2hUugOS2WRH8v4LQDqPBgee8R9C3xYNWiddiCPhzRBHclWHhC+ov4jy99GWpPEWVavtC+HBdCynUX7SlHRRJj2rP6igoPnld+DzdLna7JWYTUAIjyxLxeUxYVYXlQOtMkHT/L4akwHFfhPlzbaHWsDuFIWzx1lmNnMI6DzynHlF39LrszNUBWfYGoybVfmh1ybwMLsW5jeu1q+wCrfmRoTyPwXiRtBvy8cso5NeHSsvi+DLIGW/WOLDcOxp7H+yad1ZxR4cHy4DXADmDROjijFwD5Gk520rUm5dRT483lqQN3obddmvXL5RR9o0++PrgKHucFXEOhVDlLruECiqTy01z/3YnmzNcTHxsLsfW9LTgrl+GBJe3YukgeRe4ZslyOigN4Hzul8n1OPVWobZtnN8rr6u4wPgDne1J7HQpdQLxNqSP9nYv9vZjWtReaLvN6Vet9FQ4cA3amjh9phqo7rnSn8oy0N7pF8H6NHbs/lo7BVe80Iyp/r+u5s9jSuEpzKtAFl2sncCx9Rkyzg3kbUO84195Vrl4mMO8DzPuRIfQF1UsKLvlM40JvO5yHNG3kDSkP8+/LzWP7PtuhPS7sDKp/22ft9WYiInrcGN9n+9gGWyIiokfFGGyznkYmIiKiB8NgS0RElGcMtkRERHnGYEtERJRnDLZERER5xmBLRESUZ7p//SEiIqKZx5ktERFRnjHYEhER5RmDLRERUZ4x2BIREeUZgy0REVGeMdgSERHlGYMtERFRnjHYEhER5RmDLRERUZ4x2BIREeUZgy0REVGeMdgSERHlGYMtERFRnmUPtndjGL4YwSQA4B5in4QQ+Z1xJRPJU6hd7kP4nnHBIzbgQ9XxhDEVAHBvwIfl1ccQMy6YAbH2Kiz3h5FWHFNh+CrrcepG2pJpSqCr2oewMXmmJU/BW1aCFUuq0DVuXEhERGayB9vJMI76W/DBDQC/60HLi43ojBhXMvG9jdjX40fpPOOC2WveD/0486sX4DAumAGOHx/CmddLYSyOe3DhF//nabyw1Lhkllr4ArqvforDNcYFRERkJXuwBbBgfRFG/mYEk6HPUPqa0stOYeSQFx5vPTxlHgT+QZ6ZfRJASVkJSlathmdjG4aVTMZ60LihHCVlJahq7EHsGyk57K9Cy8EWeFaXoGTNXoTvKh8w8U0MPY1VKCkrQflqL04lpeSp4QBqV0t5e94exhSAxHEf6hs9KClrQWBfOVZoZ6yRY/CuLseKFbXoGpOSEqe9KFnjgWdXD9R5bwJdTS1oa/agvGQFSprDmAIAjKBtQznKy0pQot13i+0bfrsEJdW18BxJlQaAKQy/XYuqDRtQucaDwLCUMwZ88O5vS9s+K1OfS+uWlNXiaGpdi7oxc6MN5VtOyWcugOF/X469w7DeRyvTql+L7fsmhp5XPdJ3rm5EUHMGZfJMPewrAhhRk4iI5g6RzeCbYkPHVfHBSz8VP935rrjZ3yQ2nJgQ4vq7YsPPr0rr3PlQvFTTKSb0HxRNhU1iUAghxE3x7rqXRO8dacnogdXipeBX0lq7CsWGjpvSWn9ZKZr61RyMbv5qtdhyQv8t4p97xc5174rRr4UQ4o7obVgt3v2tEBMdG8RLwTticNfT4q2rQgzukrelv0k8/folcedrIcRv3xV/9volTWaDosmt3Y8J0emuFEdjQghxUxxdp+yPRuyoqNwl76XZ9iludabWE0KIr4I7ReWBUemPO73ipVXvilGh2T4hhLjUJCo7LPITQgjxmXhr1Vvi6tdC3lZ5+7LWjdZt8cGPtogPvhRCfH1VvLXqLfGZcRXNPioGd1WKzlvKX9OsX6vtu9UpKl/6UKoboy+vit5LN4WUKxHR3JJ9ZvvNV7iHhaiuAu79+YtwALj3NTD12xFEBgKoratFbcMpJO/eSc2O0iWReKIMzxRIf7lWPoPkl7flZQ5sdEsnbh2Nl3F4rfopo2RyHqrX2vSJk7cx9v0fwPUEABTgmWfnIXEbAIpQ9v0CADbY/kj/EZvLiYInAPzxD1B6PaGZyZpxwlUEAPMw7wk56ZtJhFrr4amrRe2uD1IzZtPts3D7yzE4V7qkPwqeQdn8RKr8bC4nCgDgO5oPmBkfwfAzZShVtks2vbpZgLqtC9ATTODexQ8wvPkFrIT1PpqbXv1abt/iOuz/80HUrqpC/dshJLST6e+WosbtSDsNT0Q0F2QPtrIFPz6NM/9uQervgn9tg61mH870nMGZnj5c/lu/1EmbKsCTdxNIyqcWJ5OTKPreU8aVsioouI2rv5VPtyrmF2DBLTVQJRPzYMst3gGfX0X0WRdyXT1lqA1vFfjR13MGZw5KAxBYbZ+FPyxYgGRS3upvkkjMs2GhcaVsFjyFhdGYFAinohiVb1iaXt0A89Y+h4X/sQttF6fwwk/kvbHYR3PTq1/r7SvAyh3tuHy1D/uebMPPTmuGQVMxhD+3HjIQEc1mWYPtvbtTcC7Wh6M7d6aAVQ145cYbKK/3oaXVi9r92uuRRivh33sPLevq4dvuQf3fb4R//fTnKCvfOIynflUJz/YWeOu86EkCWFCHfc/3YsMGL3z1VQjMa8X2pcZPasx7ErdPvgFfqxee5im07i4FlOuqZT4Eb7ShtqwEgU+MH9R4eiUcv26Bt6kenkNXU8mm24cETnlLUFLXhljQh5Iy6Vrugv9hH6ovbIBnuw/11QHMa9meJaCZmO/Gi89+gJ95vfC8OoqnpF2ZZt0AmF+DF/+8F134H1H3XTnNYh+Va/K+YAxtdSUoeXt4+vVrtX2fBFBV70NL65vY21+EFzRnCSYv74X3pU5esyWiOekPhBDCmDgjvgnBVzaK7Z/6IZ8sJSIi+laa8WCb+LUXP+sDCm4nYWs5g/1r5Qt5RERE31IzHmyJiIhIL+s1WyIiInowDLZERER5xmBLRESUZw/tmm3YX4XY65fRsNi4JIsBH6rG/Li8Y9r/DftITH4eAZ5xQf2P5Om7Nz6McGQK8/5tKSqcGW4wuxvDcHhMfoQkABSgqKIUjvmTiFwcgfy0SBQsq0BpUYZ/xSEiorzizHZGJdC7pxO5vKfB0ngX6nddRcH3i3D7vUp4+3J7SAZwB4OHAgj/EwBE0LnvYyjPcCIiokcre7Ad74KvvhGekhK07N+L8hVVOHYD1g+qz/AweUB6pVzLGvUB+1Oft8G7wYv6jSXw7B+RXkH3zSSCfg/KV5egvDVkyMAoga6mAI7tM74swOJh9+NdqPIG0OYtR3lJCWr/Sn5KkcVLBEy3b7wLvtY2tGwoR8mKErQMTMmvnqtF240gfGUlqYdXKEbeXgH7iz0ZHpsoGTl5Cq7/2Y/ShQ6sKXch/OtL1p+Z70Dpejfc691wOxIYcWzHC8pjqP5FMSrkZZzVEhE9YoZnJae71Sk2NPSKO/1N4umfXxWivyn9ZQHaB9VbPEx+cFel6By5Kt56fovojCmpN8W7NcqD9O+ID1/aIDoTQtz+m5+KLSdvS6v0Z3sYv/yygOtfCSG+Er0N8osDMj3s/k+axOAdIcTXl1IvHjB/iYD59olbnaLSfVTc/Nr4kH7NywAMvopdEr1X5X3KYHBXpeiM3RaXdm8QG/7DW+Il3YsRrHwlendWinevK39fFb9cVSm21FSKyp++Kwb/Sb82ERE9XNlntgCKnn0GBQBsNs3Te60eVG/5MPl7uPSOD7GftKOhSE6aGsFI9BICP6lFbZ0XpxL3cGcSiPxmEmt+OJ2rnk64ls4DMA/PPAvcvJXhYfcAsHYTKgoAPOHG4UsNsFm9RMBi+wAALhccTwD4Tm6zxnlFbtSU5rJPMQS2NGK07jT6fr5GeiFBNjeO4ujXr2oeU1mK1v90GWd6L6Nv+yR8rcH0l9YTEdFDk1OwNWX5oHqrh8nPQ/U7p7GmZwN8A/J1yIKnYPveRuz7mzM403MGfX97Gf5ngAXfvYObcvSO3Yimcs5uCsN/DxQ7Mj3s3pzpSwQsti+be/ID+XV+N4LwjezXX4uWOVDa0g3/nxakvyjhdyF0/dWI5oYoALiH4KEelL5cYxqY5z1ZgCfnF/BtOUREj9D9B9sMD6q3epg8vuNAQ89pLPlLL47duAegAg0/i+GNdfXwtbbAWxfAMABX3atI7quFt96Drv+2Moe34QQR2N4CX30ten/4l9Idz1YPu7dg/hIB8+2zZoP7J0m8We1Fy/YW/TXbLi+8b2e4/iqz/XgfXH/tQW2TF55d6osSACB2rg2BQ5f0r7u7cRRtt1/Fq3+qSUueQsv2FrRs96Dk3wP791ZoFhIR0cP20P71J38S6Kpug+PSYTCkEBHRbHT/M9uHLHHai5KyEsNPtpkmERHRo/cYzGyJiIhmtzkzsyUiIpqrGGyJiIjyjMGWiIgozxhsiYiI8iyHYJtAV7UPYWPyfZj8PJL1/0zzbsCHquPKgzYezFQ0jOEx5dlMk4hcDCGk+YkYnwtt9PsIwhdDCA0n+IQnIqLHWA7BdqbMwBtxZovfh7F3QzlqX2nE3gHzd+vEzvhw6v8xpmrcDaOl7ihuO5wo+ORn8Bx8LEqGiIhM5Bhsp3A+17fqmL31J8sbcdJ8M4lgswe19fWoqmxEz7iUHPY34thxL8pXr8CKLV2IyY9FnBoOoHZ1OUrKSuB5ezj1OMOp4QA8ZSUoKStHufYJUpFj8K4ux4oVtTgl5w0Ak2fqYV8RwIiaZK5gJV49dQUnfqJ9lvICuJQ38FTcw2iiAQ0ZnrIxGexE7H/6BeqW2uBaUwp092T/XiIimpuMbyZIdx9v1TF560+mN+IYfRXcKX6qvPVn5Jdi9W7pU4O7nhZNF+4IIYQYPfBnoumSEOKfe8XOde+KUfnNPL0Nq8W7v5XT/+RNMfiVJmMhvUXo6dcviTtCCHHJ8EahL6+K3ks3hfEjViY6Kk3fSHTzV5ViZzBzLhMdlaKp/474rOMlseGlt0TTutzKhoiI5p4cZ7bTeKuO5Vt/chf5x2FE/rpRyvvtMHB3Sr7Wa0OxS3rcvmtlKaLjCWDyNsa+/wO4ngCAAjzz7DwkbkNKX1uNCpMn8NtcTumh/d8xLPhuKWrcjgd7aP/dINouuvHq+uy5BF/1oPNf7sOZ7gYUP2FcSkREj4scg61iCsN/X4AfuDK9VcfqrT8S0zfiGCz4IxtWvtwt5X32Mq4crYHx5XQjv/kcziIbML8AC24lUjdeJRPzYLNBSv/NZ4jk8H0pUzGEP3+wW7hiHUcxte1FOfirpj4/ha6QmretyIkF9YfQXmvDvKlhXP3vfwCX7hNERPS4yOFxjQmcqvPg1JPVcN4dweTav8Rpr0O6Nrt9G47dewali6cQK9iOMy2l0lt/2m9j5WIgEbmHjUfaUbdYzumvauH56wJU/9un4Nq7Hy9Yvc5nahiBn/ow/L01cM1P4KvSwzj84wUI++14M1GDNU+OYWSBH2cCFSgAEOuuRf1HBSh9Momx5ftw+uelavqpeSj9PjD2vVfR11Iq3Y085sflHTb97/I125K3XTjzf7dmfB0fkqfgrTuKyO8nMYkFWFD6Ks50vwDb3SAayz7Di5/tQ6ku2N5D6NXlaJzaj08/qJMGDnL5nXriGcyLJVHddUZ9zy8RET1Wcgi2s0fYX4XY65elV+gRERHNEdM8jTyzht82vsWnBCXeU5iZ/4IlIiKaHebUzJaIiGgueqQzWyIiom8DBlsiIqI8Y7AlIiLKs4cabO8N+LC8+hhixgWZzOCLA+7b7yMIfxLL4WUB95AYDiF0MYzI743LiIjo2+qhBtt5P/TjzK9egMO4YNaaQnifB+V1P0Pj22GYv3JAleiuxxufFMDpuI2j1V4ElYc0ExHRt1oOwTaBrqYWtDUbX0RgZgR7q9t0b/YJNdWjZxJInPaiZI0Hnl09mn/tscj7m0kE/R6Ury5BeWtIzWysB40bpBcOVDX2IPYNMPnrenj7NHPOsWOo3TciPe3q7VqUry5BSVkV2j5XV8FkD+rtKxDQppkqwMqfncaVrhegfeWAuRF0nXTBv6sUtqI1WOMK48OLD/Y0KiIiejzkEGwBXB/BH77chyufnsGLn5/P8HYaG1z/KoFJTCJ86BQi3ySQuGXDUwsAW303Pr16GDXGj5jkPfkfffjg+9248p8+xZWAW14xhradl/Dc/3EFn179FIfsxxC4eA8LHA7c+/I28F9OoW1gErh1E/dsCwCM4MO+lTj0t5/i06uX4X9G850L1uDVtv8Ndcs0aRYKFkjPYs5uCnfm27BgMoSWjV7E/k0FJqe+Mq5ERETfQrkFWzjhKgKAeZiX8YH5C/DUvxlD7B8G8eHxLvT8X2OIwYHMTyFMzzvym0ms+aHxachJJJ4owzNy7HOtfAbJL28D37Vh6voYRj7qQtfpSxgZH0PRYhuACvwvv5jC3jUl8PhPYUR3DXUBSje74ZivTZsBNwKofX0Udaf60FqRa5AmIqLHXY7BNndFjgJ8duIqHEdfwe1fn8dthyOHU7B6C757Bzflu6hiN6JyagGevJtAUn6xwGRyEkXfewpY6EDR7z5E55Qf7YsH8cE/LkCxfFF4gXs/+q5+itNrP4P3nbCcDwBMIRYeweR0XlKQZgojf9WF0O+Uv4tQvLQUrR1+rPwXwMhvoij94+nuORERPY5mPNjaihYgNGJD9do1WPNfg0guk+a10qMZfQjeaENtWQkCnxg/qXLVvYrkvlp46z3o+m8rIb2vYCX8e++hZV09fNs9qP/7jfCvnycFuf83hHsVblQ8b0OorwCOxfLLAjZ60dLaAl/HGOrqStUvmLyEvV4vOn+rJplL4JS3BCV1bYjdaEOt9qX394bRuS+ADz5RrsvaULfXhVM/qoVvuwdv/FMr/JqvJCKiby8+rpGIiCjP7jPYDiNQ5kOvIdX1yhl01/PUKRERkdZ9BlsiIiLK1YxfsyUiIiI9BlsiIqI8Y7AlIiLKMwZbIiKiPJtmsE2gq9oH7eMhTP1uBJHUwx5m1uTnEcy9Jw5PIfZ5Lm8NymR6bxS6Nz6M0MUQwlHrJ1kTEdHDMc1gm5tEsAWd2rcRzJgEevd06l50MDeM4Oie7G8NymRabxSaCmLvwQgKbAuROLQajdoXNRAR0UOXU7Cd+rwN3tXlKCmrxdExJXUEbRvKUV5WgpIyDwL/cC/1xKXaQzEE/SUoKSuB97T0jp/Jcz75DTzSG3uUN/9MDQdQu1p+k89B+RUH30wi2OxBbX09qiob0TMuPxGqrBZtN4LwlZWgRPs0JzPjXfC9fQx7N5SjZEUJWgbk6GSWN4DE8Sp498v7WVKLU3I6poYR2Chtd/nqAIalRIwc8sLjrYcnte9A2O9F4JAX5atXYMWWLsS+AfBJQPfkrJIyJQ8AGEFghR31Z7LN1af5RqGCGuw/2oDSP3bhhR9XYOzLBwnzRET0wERWn4m3Vr0lrn4thBATotPdJAaNq8SOispdaupER6Vo6tetoXPp9UrReUv6fXDXn4lf/uYr3fKvgjvFT0/elv4Y+aVYvVvJ2+L7zdzqFJXuo+LmV0KIf+4VL607Km5myHuio1L8ya5BcUcIIS41icqOCSHEV6J355+INwf12yeuvys2/Pyq9PudD8VLNZ1iQggxuOtp0XTpjhCGfRRiUDS5pXX0vhI3L/WKq18a042kz9/88pJ48/kN4pc/f0nevmzuiEuvrxZv/caYTkRED1P2me34CIafKUOp8W0/30wi1FoPT10tand9APm9AZamPu9C45Za1NbVou2Kml6x+xeY+g+rUbLRh1P/IM0+I/84jMhfN6K2rha1b4eBu1P3d53W5YJjHoD5z6DsiZtIZsm7Yn0FCgDAfRiXd9gA3MbtLypQXTFPl+3Ub0cQGQhIeTScQvLuHTkPG4qflt72M+87uo9YmAeHuwal3zWmm5j2G4XuIdbuRafrBPb9qXEZERE9TNmD7YKnsDAak4LpVBSjyunVoTa8VeBHX88ZnDn4IuQX7ai+1v6RQM//ehVr/vczONNzGv4fahZ91439vZ/i05PP4bOGAMIAFvyRDStf7saZnjM4c/YyrhytgfaFe/em+7aeqWFcRTGKcshb7w9R8K8+x2f/RZ9a8K9tsNXsk/Lo6cPlv/VjpX6VdN/cM71BavLzMGKZrr8CWd8oNPX5KXSFtMORe4i116MF+3F6R1rNEBHRQ5Y92M5348VnP8DPvF54Xh3FU8qbbJ5eCcevW+Btqofn0FXdR2zuF5B8swreVi9aTicA2LDy2QjaGnzwbvTiw98r4S2BU14PvK0taGk+irEf16EUgK22FY6TlfBsb0FLUz18v1bfrOP+SRJvVnvRsr0l8zVbAAgG4G31oX5LL8qONcCWMW8zC1D3ixcw3FCO+iYf6jfI11tXNeCVG2+gvN6HllYvaverV2HNlWLTsx+gvs4HX32b7ppt50te7L2caRuQ5Y1C9zB8Yi8CpwfV2X94L6oOjiB2qh6r064TExHRw/b4Pht5vAtVRxy43FZhXEJERPRQZZ/ZznLSe3INP95TqbudiYiIHrXHd2ZLREQ0S8z5mS0REdFsx2BLRESUZwy2REREecZgS0RElGcMtkRERHnGYEtERJRnDLZERER5xmBLRESUZwy2REREecZgS0RElGf/P5JQxHFfcqgMAAAAAElFTkSuQmCC;" vertex="1" parent="1">
          <mxGeometry x="880" y="450" width="475" height="215" as="geometry" />
        </mxCell>
      </root>
    </mxGraphModel>
  </diagram>
</mxfile>
